<?xml version="1.0" encoding="UTF-8"?><svg id="Layer_1" xmlns="http://www.w3.org/2000/svg" width="1431.0513" height="1431.0513" xmlns:xlink="http://www.w3.org/1999/xlink" viewBox="0 0 1431.0513 1431.0513"><defs><style>.cls-1{fill:url(#linear-gradient);}.cls-1,.cls-2{stroke-width:0px;}.cls-3{fill:#fff;stroke:#fff;stroke-miterlimit:10;stroke-width:2px;}.cls-2{fill:#141414;}</style><linearGradient id="linear-gradient" x1="465.7569" y1="367.6196" x2="1235.0119" y2="1082.0365" gradientUnits="userSpaceOnUse"><stop offset=".1564" stop-color="#10ffd7"/><stop offset=".1739" stop-color="#19f7da"/><stop offset=".268" stop-color="#47d0ea"/><stop offset=".3516" stop-color="#68b5f5"/><stop offset=".421" stop-color="#7ca4fc"/><stop offset=".4675" stop-color="#849eff"/><stop offset=".5735" stop-color="#5d96ff"/><stop offset=".7971" stop-color="#0383ff"/></linearGradient></defs><circle class="cls-2" cx="715.5256" cy="715.5256" r="715.5256"/><path class="cls-1" d="m1272.0743,489.7543v73.2536c0,27.2551-22.0946,49.3497-49.3497,49.3497h-240.6696c-27.2551,0-49.3497,22.0946-49.3497,49.3497v442.5073c0,13.0419-5.1626,25.5535-14.3595,34.8006l-120.0029,120.6565c-19.2389,19.3437-50.523,19.4067-69.8397.1407l-292.596-291.8279c-9.2829-9.2586-14.5001-21.8305-14.5001-34.9413v-443.2887c0-27.2551-22.0946-49.3497-49.3497-49.3497h-69.6146c-27.2551,0-49.3497-22.0946-49.3497-49.3497v-70.5125c0-27.2551,22.0946-49.3497,49.3497-49.3497h511.1218c43.9658,0,65.984,53.1566,34.8955,84.2451l-70.5125,70.5125c-9.2549,9.2549-21.8071,14.4542-34.8955,14.4542h-98.5466c-27.2551,0-49.3497,22.0946-49.3497,49.3497v443.5578c0,12.9515,5.0914,25.3839,14.1759,34.615l69.6382,70.7624c30.9724,31.4724,84.5234,9.5417,84.5234-34.615v-371.5075c0-12.951,5.0911-25.383,14.1749-34.614l140.5361-142.8127c9.2766-9.4269,21.9489-14.7357,35.1747-14.7357h269.3453c27.2551,0,49.3497,22.0946,49.3497,49.3497Z"/><path class="cls-3" d="m439.5039,979.6383c3.6021,3.6021,6.302,7.6566,8.1019,12.1633s2.6953,9.1126,2.6929,13.8201c-.0058,4.7098-.8988,9.3296-2.6803,13.8616-1.7815,4.5367-4.4767,8.6073-8.0869,12.2163-3.6079,3.6091-7.6796,6.3043-12.214,8.0858s-9.1553,2.6768-13.8616,2.6791c-4.7086.0023-9.3146-.893-13.8213-2.6929s-8.56-4.4998-12.1621-8.1019l-16.4369-16.4369c-.3508-.3508-.3761-.6761-.075-.9784l51.0541-51.0529c.3496-.3508.7015-.3508,1.0523,0l16.4369,16.4369Zm-42.9049,42.9626c2.3053,2.3053,4.9244,4.0475,7.8573,5.2267,2.9318,1.1769,5.9524,1.7676,9.0607,1.7676,3.1072-.0023,6.1151-.5769,9.0215-1.7307,2.9087-1.1538,5.5394-2.9076,7.8954-5.2613,2.3064-2.3076,4.0475-4.9244,5.2255-7.8596,1.178-2.9306,1.7665-5.9536,1.7676-9.0596-.0012-3.106-.5896-6.1289-1.7665-9.0596-1.1792-2.9352-2.9214-5.552-5.2267-7.8596l-7.8942-7.8919-33.8349,33.8338,7.8942,7.8942Z"/><path class="cls-3" d="m509.4583,1050.3449l-.6011.6-1.2034,1.2046-6.3159,6.3159c-.3519.3531-.7027.3484-1.0523,0l-28.4213-28.4225-12.8578,12.8578,24.8123,24.8134c.3.3.3011.6023,0,.9023l-8.1204,8.1204c-.3519.3531-.6773.3761-.9773.0762l-24.8123-24.8134-11.9556,11.9556,28.4213,28.4202c.3496.3508.3519.7015.0046,1.0476l-8.05,8.0512c-.3508.3508-.7027.3484-1.0523,0l-28.4213-28.4225-8.5715-8.5704c-.3519-.3508-.3508-.7015,0-1.0523l8.6477-8.6488,33.8349-33.8338,8.6465-8.6465c.3011-.3023.6254-.2769.9773.0762l8.5715,8.5704,28.4213,28.4202c.3496.3508.3761.6784.075.9784Z"/><path class="cls-3" d="m556.826,1097.8626l-8.1215,8.1227c-.3.3-.6265.2723-.9761-.0785l-23.4589-23.4589c-1.7549-1.7538-3.8871-2.6306-6.3908-2.6306-2.5083,0-4.6382.8769-6.3932,2.6306-1.7549,1.7561-2.633,3.886-2.6306,6.392-.0012,2.506.8769,4.6382,2.6318,6.392l8.8727,8.8727c2.1045,2.1045,3.6702,4.4744,4.6994,7.105,1.0269,2.6306,1.5415,5.3028,1.5415,8.0073-.0012,2.7068-.5146,5.3767-1.5426,8.0073s-2.5937,5.0005-4.6994,7.1074c-2.1045,2.1045-4.4744,3.6691-7.105,4.6982-2.633,1.0292-5.3005,1.5415-8.0073,1.5415s-5.3767-.5123-8.0073-1.5415c-2.633-1.0292-5.0005-2.5937-7.105-4.6982l-23.91-23.9112c-.3011-.3-.2769-.6277.0738-.9784l8.0454-8.0442c.3496-.3508.6773-.3761.9784-.0738l4.5863,4.5852,19.3237,19.3237c1.6534,1.6545,3.6587,2.4807,6.0147,2.4807s4.3613-.8261,6.0147-2.4807c1.6545-1.6545,2.4807-3.6598,2.4818-6.0159,0-2.3537-.8273-4.3613-2.4807-6.0136l-8.8727-8.875c-2.1553-2.1553-3.7729-4.5736-4.8494-7.255-1.0788-2.6814-1.6188-5.4274-1.6165-8.2335-.0012-2.806.5377-5.552,1.6153-8.2335s2.6941-5.0998,4.8494-7.255,4.5748-3.7706,7.2562-4.8505c2.6814-1.0753,5.4251-1.6153,8.2335-1.6153,2.806,0,5.552.54,8.2335,1.6153,2.6803,1.0799,5.1009,2.6953,7.2562,4.8505l23.4589,23.4589c.3496.3508.3496.7015,0,1.0523Z"/><path class="cls-3" d="m573.744,1114.6295l-51.0541,51.0553c-.4015.4015-.7765.4269-1.1273.0762l-8.0454-8.0465c-.3508-.3508-.3265-.7269.075-1.1284l51.0541-51.0529c.3011-.3.6265-.2769.9773.0738l8.0454,8.0465c.3508.3508.3761.6761.075.9761Z"/><path class="cls-3" d="m609.5335,1195.5333l-13.234,13.234-3.5341,3.5329c-.1015.1015-.2515.1523-.4511.15-4.1086.3069-8.0765.27-11.9083-.1038-3.8329-.3738-7.7016-1.4584-11.606-3.2583-2.6041-1.1999-4.9821-2.5522-7.135-4.0521-2.1518-1.4999-4.2044-3.2791-6.1566-5.3305-.3011-.3-.6011-.6-.9011-.9-.3011-.3023-.5757-.6254-.825-.9761-.5527-.653-1.0892-1.3153-1.6142-1.9914-.5273-.6761-.9888-1.3638-1.3892-2.063-2.2014-3.5029-3.7637-7.2227-4.6879-11.1549-.923-3.9321-1.208-7.8735-.8538-11.8333.3519-3.9552,1.3211-7.7766,2.9018-11.4595,1.5795-3.6829,3.7729-7.075,6.5812-10.1857,2.7564-3.0575,5.9259-5.552,9.5107-7.4812,3.5837-1.9291,7.3173-3.2329,11.2033-3.909,3.8837-.6784,7.8181-.7269,11.8044-.1523,3.984.5769,7.8319,1.8184,11.5414,3.7221,3.7106,1.9061,6.9551,4.3244,9.738,7.2573,2.7818,2.9306,5.0121,6.1659,6.692,9.6988,1.6765,3.5329,2.7553,7.3197,3.2329,11.3533.4754,4.036.2861,8.0835-.5642,12.1448v.3c-.2008.4984-.5261.6738-.9773.5261l-10.9033-3.3852c-.4511-.15-.6277-.4246-.5261-.8261.5007-2.6053.5492-5.1874.15-7.7442-.4015-2.5568-1.1653-4.9751-2.2926-7.2573-1.1284-2.2799-2.5822-4.3336-4.3602-6.1636-1.7803-1.8299-3.8721-3.346-6.2789-4.5506-2.4068-1.2023-4.8759-1.9914-7.4062-2.3653-2.5337-.3784-5.0513-.3415-7.5562.1108-2.5072.4523-4.9002,1.2922-7.18,2.5199-2.2822,1.2276-4.3244,2.7922-6.1301,4.6982-1.8541,1.9568-3.3079,4.1121-4.359,6.4658-1.0546,2.356-1.7053,4.7882-1.9557,7.292-.2515,2.5106-.1131,5.0259.4131,7.5596.5261,2.5291,1.4411,4.9498,2.7449,7.255,1.2046,2.1045,2.7818,4.0337,4.7375,5.7897,1.9534,1.7515,4.0717,3.2468,6.3528,4.4744s4.7098,2.1299,7.2931,2.7045c2.5822.5769,5.0998.7384,7.5562.4892l.4511-.4523,4.2113-4.209-11.2033-11.2056c-.3508-.3508-.3519-.6992,0-1.0523l8.0454-8.0442c.3496-.3508.7015-.3508,1.0523,0l19.7748,19.776c.3508.3508.3508.7015.0012,1.0523Z"/><path class="cls-3" d="m685.6225,1226.658l-48.5734,48.5746-2.5556,2.5568c-.3011.3-.6277.2723-.9773-.0762l-8.3465-8.3465-.225-.2261-.0012-.3,8.8727-64.8131-36.5417,36.5406c-.3011.3023-.6265.2769-.9773-.0738l-8.1204-8.1204c-.3-.3-.3-.6.0012-.9023l51.1291-51.1268c.3496-.3508.6761-.3784.9761-.0785l8.3465,8.3488c.1004.0992.1477.1754.15.2261-.0012.0485.0254.0969.075.1477v.3023l-8.8727,64.8131,36.5429-36.5429c.3496-.3508.7004-.3508,1.0523,0l8.0454,8.0442c.3496.3508.3496.7038,0,1.0523Z"/><path class="cls-3" d="m733.5949,1274.6326l-8.1215,8.1204c-.3.3-.6265.2746-.9761-.0762l-23.4589-23.4589c-1.7549-1.7538-3.8871-2.6306-6.392-2.633-2.5072.0023-4.6371.8792-6.392,2.633s-2.633,3.886-2.6318,6.392c0,2.506.878,4.6359,2.633,6.392l8.8715,8.8703c2.1057,2.1045,3.6714,4.4744,4.7005,7.105,1.0269,2.633,1.5403,5.3005,1.5403,8.0096,0,2.7045-.5134,5.3744-1.5415,8.0073-1.028,2.6306-2.5937,4.9982-4.6994,7.105-2.1045,2.1045-4.4744,3.6714-7.105,4.6982-2.633,1.0292-5.3005,1.5415-8.0085,1.5438-2.7056-.0023-5.3755-.5146-8.0062-1.5438-2.633-1.0269-5.0005-2.5937-7.1062-4.7005l-23.91-23.9089c-.3011-.3023-.2758-.6254.075-.9761l8.0454-8.0465c.3496-.3484.6761-.3761.9773-.0762l4.5875,4.5875,19.3225,19.3237c1.6545,1.6545,3.6587,2.483,6.0147,2.483s4.3625-.8284,6.0159-2.483c1.6545-1.6522,2.4807-3.6598,2.4807-6.0136,0-2.3583-.8261-4.3613-2.4807-6.0182l-8.8715-8.8703c-2.1564-2.1553-3.7729-4.5736-4.8494-7.255-1.0799-2.6814-1.6188-5.4274-1.6176-8.2335,0-2.806.5388-5.552,1.6165-8.2335,1.0765-2.6814,2.6941-5.0998,4.8494-7.255s4.5736-3.7752,7.2562-4.8505c2.6814-1.0776,5.4251-1.6153,8.2323-1.6153,2.8072-.0023,5.552.5354,8.2346,1.6153,2.6803,1.0799,5.0998,2.6929,7.2562,4.8505l23.4589,23.4589c.3496.3484.3496.7015,0,1.0523Z"/></svg>