<?xml version="1.0" encoding="UTF-8"?><svg id="Layer_1" xmlns="http://www.w3.org/2000/svg" width="477" height="333" xmlns:xlink="http://www.w3.org/1999/xlink" viewBox="0 0 477 333"><defs><style>.cls-1{fill:url(#TJS_Gradient-57);}.cls-1,.cls-2,.cls-3,.cls-4,.cls-5,.cls-6,.cls-7,.cls-8,.cls-9,.cls-10,.cls-11,.cls-12,.cls-13,.cls-14,.cls-15,.cls-16,.cls-17,.cls-18,.cls-19,.cls-20,.cls-21,.cls-22,.cls-23,.cls-24,.cls-25,.cls-26,.cls-27,.cls-28,.cls-29,.cls-30,.cls-31,.cls-32,.cls-33,.cls-34,.cls-35,.cls-36,.cls-37,.cls-38,.cls-39,.cls-40,.cls-41,.cls-42,.cls-43,.cls-44,.cls-45,.cls-46,.cls-47,.cls-48,.cls-49,.cls-50,.cls-51,.cls-52,.cls-53,.cls-54,.cls-55,.cls-56,.cls-57,.cls-58,.cls-59,.cls-60,.cls-61,.cls-62,.cls-63,.cls-64,.cls-65,.cls-66,.cls-67,.cls-68,.cls-69,.cls-70,.cls-71,.cls-72,.cls-73,.cls-74,.cls-75,.cls-76,.cls-77,.cls-78,.cls-79,.cls-80,.cls-81,.cls-82,.cls-83,.cls-84,.cls-85,.cls-86,.cls-87,.cls-88,.cls-89,.cls-90,.cls-91,.cls-92,.cls-93,.cls-94,.cls-95,.cls-96,.cls-97,.cls-98,.cls-99,.cls-100,.cls-101,.cls-102,.cls-103,.cls-104,.cls-105,.cls-106,.cls-107,.cls-108,.cls-109,.cls-110,.cls-111,.cls-112,.cls-113,.cls-114,.cls-115,.cls-116,.cls-117,.cls-118,.cls-119{stroke-width:0px;}.cls-2{fill:url(#TJS_Gradient-108);}.cls-3{fill:url(#TJS_Gradient-63);}.cls-4{fill:url(#TJS_Gradient-45);}.cls-5{fill:url(#TJS_Gradient-64);}.cls-6{fill:url(#TJS_Gradient-52);}.cls-7{fill:url(#TJS_Gradient-114);}.cls-8{fill:url(#TJS_Gradient-65);}.cls-9{fill:url(#TJS_Gradient-111);}.cls-10{fill:url(#TJS_Gradient-72);}.cls-11{fill:url(#TJS_Gradient-49);}.cls-12{fill:url(#TJS_Gradient-81);}.cls-13{fill:url(#TJS_Gradient-93);}.cls-14{fill:url(#TJS_Gradient-32);}.cls-15{fill:url(#TJS_Gradient-35);}.cls-16{fill:url(#TJS_Gradient-103);}.cls-17{fill:url(#TJS_Gradient-96);}.cls-18{fill:url(#TJS_Gradient-86);}.cls-19{fill:url(#TJS_Gradient);}.cls-20{fill:url(#TJS_Gradient-38);}.cls-21{fill:url(#TJS_Gradient-53);}.cls-22{fill:url(#TJS_Gradient-37);}.cls-23{fill:url(#TJS_Gradient-67);}.cls-24{fill:url(#TJS_Gradient-20);}.cls-25{fill:url(#TJS_Gradient-105);}.cls-26{fill:url(#TJS_Gradient-50);}.cls-27{fill:url(#TJS_Gradient-83);}.cls-28{fill:url(#TJS_Gradient-51);}.cls-29{fill:url(#TJS_Gradient-112);}.cls-30{fill:url(#TJS_Gradient-107);}.cls-32{fill:url(#TJS_Gradient-31);}.cls-33{fill:url(#TJS_Gradient-5);}.cls-34{fill:url(#TJS_Gradient-27);}.cls-35{fill:url(#TJS_Gradient-19);}.cls-36{fill:url(#TJS_Gradient-16);}.cls-37{fill:url(#TJS_Gradient-110);}.cls-38{fill:url(#TJS_Gradient-55);}.cls-39{fill:url(#TJS_Gradient-94);}.cls-40{fill:url(#TJS_Gradient-58);}.cls-41{fill:url(#TJS_Gradient-66);}.cls-42{fill:url(#TJS_Gradient-79);}.cls-43{fill:url(#TJS_Gradient-13);}.cls-44{fill:url(#TJS_Gradient-87);}.cls-45{fill:url(#TJS_Gradient-33);}.cls-46{fill:url(#TJS_Gradient-70);}.cls-47{fill:url(#TJS_Gradient-85);}.cls-48{fill:url(#TJS_Gradient-42);}.cls-49{fill:url(#TJS_Gradient-73);}.cls-50{fill:url(#TJS_Gradient-62);}.cls-51{fill:url(#TJS_Gradient-61);}.cls-52{fill:url(#TJS_Gradient-104);}.cls-53{fill:url(#TJS_Gradient-60);}.cls-54{fill:url(#TJS_Gradient-102);}.cls-55{fill:url(#TJS_Gradient-11);}.cls-56{fill:url(#TJS_Gradient-101);}.cls-57{fill:url(#TJS_Gradient-82);}.cls-58{fill:url(#TJS_Gradient-22);}.cls-59{fill:url(#TJS_Gradient-9);}.cls-60{fill:url(#TJS_Gradient-91);}.cls-61{fill:url(#TJS_Gradient-113);}.cls-62{fill:#fff;}.cls-63{fill:url(#TJS_Gradient-30);}.cls-64{fill:url(#TJS_Gradient-56);}.cls-65{fill:url(#TJS_Gradient-76);}.cls-66{fill:url(#TJS_Gradient-28);}.cls-67{fill:url(#TJS_Gradient-78);}.cls-68{fill:url(#TJS_Gradient-90);}.cls-69{fill:url(#TJS_Gradient-23);}.cls-70{fill:url(#TJS_Gradient-21);}.cls-71{fill:url(#TJS_Gradient-97);}.cls-72{fill:url(#TJS_Gradient-17);}.cls-73{fill:url(#TJS_Gradient-39);}.cls-74{fill:url(#TJS_Gradient-8);}.cls-75{fill:url(#TJS_Gradient-89);}.cls-76{fill:url(#TJS_Gradient-84);}.cls-77{fill:url(#TJS_Gradient-77);}.cls-78{fill:url(#TJS_Gradient-47);}.cls-79{fill:url(#TJS_Gradient-106);}.cls-80{fill:url(#TJS_Gradient-4);}.cls-81{fill:url(#TJS_Gradient-18);}.cls-82{fill:url(#TJS_Gradient-10);}.cls-83{fill:url(#TJS_Gradient-40);}.cls-84{fill:url(#TJS_Gradient-68);}.cls-85{fill:url(#TJS_Gradient-92);}.cls-86{fill:url(#TJS_Gradient-115);}.cls-87{fill:url(#TJS_Gradient-71);}.cls-88{fill:url(#TJS_Gradient-116);}.cls-89{fill:url(#TJS_Gradient-48);}.cls-90{fill:url(#TJS_Gradient-3);}.cls-91{fill:url(#TJS_Gradient-99);}.cls-92{fill:url(#TJS_Gradient-14);}.cls-93{fill:url(#TJS_Gradient-95);}.cls-94{fill:url(#TJS_Gradient-34);}.cls-95{fill:url(#TJS_Gradient-25);}.cls-96{fill:url(#TJS_Gradient-2);}.cls-97{fill:url(#TJS_Gradient-54);}.cls-98{fill:url(#TJS_Gradient-59);}.cls-99{fill:url(#TJS_Gradient-15);}.cls-100{fill:url(#TJS_Gradient-117);}.cls-101{fill:url(#TJS_Gradient-36);}.cls-102{fill:url(#TJS_Gradient-43);}.cls-103{fill:url(#TJS_Gradient-69);}.cls-104{fill:url(#TJS_Gradient-41);}.cls-105{fill:url(#TJS_Gradient-109);}.cls-106{fill:url(#TJS_Gradient-98);}.cls-107{fill:url(#TJS_Gradient-29);}.cls-108{fill:url(#TJS_Gradient-24);}.cls-109{fill:url(#TJS_Gradient-7);}.cls-110{fill:url(#TJS_Gradient-44);}.cls-111{fill:url(#TJS_Gradient-46);}.cls-112{fill:url(#TJS_Gradient-6);}.cls-113{fill:url(#TJS_Gradient-74);}.cls-114{fill:url(#TJS_Gradient-80);}.cls-115{fill:url(#TJS_Gradient-75);}.cls-116{fill:url(#TJS_Gradient-100);}.cls-117{fill:url(#TJS_Gradient-12);}.cls-118{fill:url(#TJS_Gradient-26);}.cls-119{fill:url(#TJS_Gradient-88);}</style><linearGradient id="TJS_Gradient" x1="135" y1="252" x2="135" y2="27" gradientUnits="userSpaceOnUse"><stop offset=".1564" stop-color="#10ffd7"/><stop offset=".1739" stop-color="#19f7da"/><stop offset=".268" stop-color="#47d0ea"/><stop offset=".3516" stop-color="#68b5f5"/><stop offset=".421" stop-color="#7ca4fc"/><stop offset=".4675" stop-color="#849eff"/><stop offset=".5735" stop-color="#5d96ff"/><stop offset=".7971" stop-color="#0383ff"/></linearGradient><linearGradient id="TJS_Gradient-2" x1="134.2895" y1="251.2895" x2="134.2895" y2="26.2895" xlink:href="#TJS_Gradient"/><linearGradient id="TJS_Gradient-3" x1="133.5789" y1="250.5789" x2="133.5789" y2="25.5789" xlink:href="#TJS_Gradient"/><linearGradient id="TJS_Gradient-4" x1="132.8684" y1="249.8684" x2="132.8684" y2="24.8684" xlink:href="#TJS_Gradient"/><linearGradient id="TJS_Gradient-5" x1="132.1579" y1="249.1579" x2="132.1579" y2="24.1579" xlink:href="#TJS_Gradient"/><linearGradient id="TJS_Gradient-6" x1="131.4474" y1="248.4474" x2="131.4474" y2="23.4474" xlink:href="#TJS_Gradient"/><linearGradient id="TJS_Gradient-7" x1="130.7368" y1="247.7368" x2="130.7368" y2="22.7368" xlink:href="#TJS_Gradient"/><linearGradient id="TJS_Gradient-8" x1="130.0263" y1="247.0263" x2="130.0263" y2="22.0263" xlink:href="#TJS_Gradient"/><linearGradient id="TJS_Gradient-9" x1="129.3158" y1="246.3158" x2="129.3158" y2="21.3158" xlink:href="#TJS_Gradient"/><linearGradient id="TJS_Gradient-10" x1="128.6053" y1="245.6053" x2="128.6053" y2="20.6053" xlink:href="#TJS_Gradient"/><linearGradient id="TJS_Gradient-11" x1="127.8947" y1="244.8947" x2="127.8947" y2="19.8947" xlink:href="#TJS_Gradient"/><linearGradient id="TJS_Gradient-12" x1="127.1842" y1="244.1842" x2="127.1842" y2="19.1842" xlink:href="#TJS_Gradient"/><linearGradient id="TJS_Gradient-13" x1="126.4737" y1="243.4737" x2="126.4737" y2="18.4737" xlink:href="#TJS_Gradient"/><linearGradient id="TJS_Gradient-14" x1="125.7632" y1="242.7632" x2="125.7632" y2="17.7632" xlink:href="#TJS_Gradient"/><linearGradient id="TJS_Gradient-15" x1="125.0526" y1="242.0526" x2="125.0526" y2="17.0526" xlink:href="#TJS_Gradient"/><linearGradient id="TJS_Gradient-16" x1="124.3421" y1="241.3421" x2="124.3421" y2="16.3421" xlink:href="#TJS_Gradient"/><linearGradient id="TJS_Gradient-17" x1="123.6316" y1="240.6316" x2="123.6316" y2="15.6316" xlink:href="#TJS_Gradient"/><linearGradient id="TJS_Gradient-18" x1="122.9211" y1="239.9211" x2="122.9211" y2="14.9211" xlink:href="#TJS_Gradient"/><linearGradient id="TJS_Gradient-19" x1="122.2105" y1="239.2105" x2="122.2105" y2="14.2105" xlink:href="#TJS_Gradient"/><linearGradient id="TJS_Gradient-20" x1="121.5" y1="238.5" x2="121.5" y2="13.5" xlink:href="#TJS_Gradient"/><linearGradient id="TJS_Gradient-21" x1="120.7895" y1="237.7895" x2="120.7895" y2="12.7895" xlink:href="#TJS_Gradient"/><linearGradient id="TJS_Gradient-22" x1="120.0789" y1="237.0789" x2="120.0789" y2="12.0789" xlink:href="#TJS_Gradient"/><linearGradient id="TJS_Gradient-23" x1="119.3684" y1="236.3684" x2="119.3684" y2="11.3684" xlink:href="#TJS_Gradient"/><linearGradient id="TJS_Gradient-24" x1="118.6579" y1="235.6579" x2="118.6579" y2="10.6579" xlink:href="#TJS_Gradient"/><linearGradient id="TJS_Gradient-25" x1="117.9474" y1="234.9474" x2="117.9474" y2="9.9474" xlink:href="#TJS_Gradient"/><linearGradient id="TJS_Gradient-26" x1="117.2368" y1="234.2368" x2="117.2368" y2="9.2368" xlink:href="#TJS_Gradient"/><linearGradient id="TJS_Gradient-27" x1="116.5263" y1="233.5263" x2="116.5263" y2="8.5263" xlink:href="#TJS_Gradient"/><linearGradient id="TJS_Gradient-28" x1="115.8158" y1="232.8158" x2="115.8158" y2="7.8158" xlink:href="#TJS_Gradient"/><linearGradient id="TJS_Gradient-29" x1="115.1053" y1="232.1053" x2="115.1053" y2="7.1053" xlink:href="#TJS_Gradient"/><linearGradient id="TJS_Gradient-30" x1="114.3947" y1="231.3947" x2="114.3947" y2="6.3947" xlink:href="#TJS_Gradient"/><linearGradient id="TJS_Gradient-31" x1="113.6842" y1="230.6842" x2="113.6842" y2="5.6842" xlink:href="#TJS_Gradient"/><linearGradient id="TJS_Gradient-32" x1="112.9737" y1="229.9737" x2="112.9737" y2="4.9737" xlink:href="#TJS_Gradient"/><linearGradient id="TJS_Gradient-33" x1="112.2632" y1="229.2632" x2="112.2632" y2="4.2632" xlink:href="#TJS_Gradient"/><linearGradient id="TJS_Gradient-34" x1="111.5526" y1="228.5526" x2="111.5526" y2="3.5526" xlink:href="#TJS_Gradient"/><linearGradient id="TJS_Gradient-35" x1="110.8421" y1="227.8421" x2="110.8421" y2="2.8421" xlink:href="#TJS_Gradient"/><linearGradient id="TJS_Gradient-36" x1="110.1316" y1="227.1316" x2="110.1316" y2="2.1316" xlink:href="#TJS_Gradient"/><linearGradient id="TJS_Gradient-37" x1="109.4211" y1="226.4211" x2="109.4211" y2="1.4211" xlink:href="#TJS_Gradient"/><linearGradient id="TJS_Gradient-38" x1="108.7105" y1="225.7105" x2="108.7105" y2=".7105" xlink:href="#TJS_Gradient"/><linearGradient id="TJS_Gradient-39" x1="108" y1="225" x2="108" y2="0" xlink:href="#TJS_Gradient"/><linearGradient id="TJS_Gradient-40" x1="252" x2="252" xlink:href="#TJS_Gradient"/><linearGradient id="TJS_Gradient-41" x1="251.2895" y1="251.2895" x2="251.2895" y2="26.2895" xlink:href="#TJS_Gradient"/><linearGradient id="TJS_Gradient-42" x1="250.5789" y1="250.5789" x2="250.5789" y2="25.5789" xlink:href="#TJS_Gradient"/><linearGradient id="TJS_Gradient-43" x1="249.8684" y1="249.8684" x2="249.8684" y2="24.8684" xlink:href="#TJS_Gradient"/><linearGradient id="TJS_Gradient-44" x1="249.1579" y1="249.1579" x2="249.1579" y2="24.1579" xlink:href="#TJS_Gradient"/><linearGradient id="TJS_Gradient-45" x1="248.4474" y1="248.4474" x2="248.4474" y2="23.4474" xlink:href="#TJS_Gradient"/><linearGradient id="TJS_Gradient-46" x1="247.7368" y1="247.7368" x2="247.7368" y2="22.7368" xlink:href="#TJS_Gradient"/><linearGradient id="TJS_Gradient-47" x1="247.0263" y1="247.0263" x2="247.0263" y2="22.0263" xlink:href="#TJS_Gradient"/><linearGradient id="TJS_Gradient-48" x1="246.3158" y1="246.3158" x2="246.3158" y2="21.3158" xlink:href="#TJS_Gradient"/><linearGradient id="TJS_Gradient-49" x1="245.6053" y1="245.6053" x2="245.6053" y2="20.6053" xlink:href="#TJS_Gradient"/><linearGradient id="TJS_Gradient-50" x1="244.8947" y1="244.8947" x2="244.8947" y2="19.8947" xlink:href="#TJS_Gradient"/><linearGradient id="TJS_Gradient-51" x1="244.1842" y1="244.1842" x2="244.1842" y2="19.1842" xlink:href="#TJS_Gradient"/><linearGradient id="TJS_Gradient-52" x1="243.4737" y1="243.4737" x2="243.4737" y2="18.4737" xlink:href="#TJS_Gradient"/><linearGradient id="TJS_Gradient-53" x1="242.7632" y1="242.7632" x2="242.7632" y2="17.7632" xlink:href="#TJS_Gradient"/><linearGradient id="TJS_Gradient-54" x1="242.0526" y1="242.0526" x2="242.0526" y2="17.0526" xlink:href="#TJS_Gradient"/><linearGradient id="TJS_Gradient-55" x1="241.3421" y1="241.3421" x2="241.3421" y2="16.3421" xlink:href="#TJS_Gradient"/><linearGradient id="TJS_Gradient-56" x1="240.6316" y1="240.6316" x2="240.6316" y2="15.6316" xlink:href="#TJS_Gradient"/><linearGradient id="TJS_Gradient-57" x1="239.9211" y1="239.9211" x2="239.9211" y2="14.9211" xlink:href="#TJS_Gradient"/><linearGradient id="TJS_Gradient-58" x1="239.2105" y1="239.2105" x2="239.2105" y2="14.2105" xlink:href="#TJS_Gradient"/><linearGradient id="TJS_Gradient-59" x1="238.5" y1="238.5" x2="238.5" y2="13.5" xlink:href="#TJS_Gradient"/><linearGradient id="TJS_Gradient-60" x1="237.7895" y1="237.7895" x2="237.7895" y2="12.7895" xlink:href="#TJS_Gradient"/><linearGradient id="TJS_Gradient-61" x1="237.0789" y1="237.0789" x2="237.0789" y2="12.0789" xlink:href="#TJS_Gradient"/><linearGradient id="TJS_Gradient-62" x1="236.3684" y1="236.3684" x2="236.3684" y2="11.3684" xlink:href="#TJS_Gradient"/><linearGradient id="TJS_Gradient-63" x1="235.6579" y1="235.6579" x2="235.6579" y2="10.6579" xlink:href="#TJS_Gradient"/><linearGradient id="TJS_Gradient-64" x1="234.9474" y1="234.9474" x2="234.9474" y2="9.9474" xlink:href="#TJS_Gradient"/><linearGradient id="TJS_Gradient-65" x1="234.2368" y1="234.2368" x2="234.2368" y2="9.2368" xlink:href="#TJS_Gradient"/><linearGradient id="TJS_Gradient-66" x1="233.5263" y1="233.5263" x2="233.5263" y2="8.5263" xlink:href="#TJS_Gradient"/><linearGradient id="TJS_Gradient-67" x1="232.8158" y1="232.8158" x2="232.8158" y2="7.8158" xlink:href="#TJS_Gradient"/><linearGradient id="TJS_Gradient-68" x1="232.1053" y1="232.1053" x2="232.1053" y2="7.1053" xlink:href="#TJS_Gradient"/><linearGradient id="TJS_Gradient-69" x1="231.3947" y1="231.3947" x2="231.3947" y2="6.3947" xlink:href="#TJS_Gradient"/><linearGradient id="TJS_Gradient-70" x1="230.6842" y1="230.6842" x2="230.6842" y2="5.6842" xlink:href="#TJS_Gradient"/><linearGradient id="TJS_Gradient-71" x1="229.9737" y1="229.9737" x2="229.9737" y2="4.9737" xlink:href="#TJS_Gradient"/><linearGradient id="TJS_Gradient-72" x1="229.2632" y1="229.2632" x2="229.2632" y2="4.2632" xlink:href="#TJS_Gradient"/><linearGradient id="TJS_Gradient-73" x1="228.5526" y1="228.5526" x2="228.5526" y2="3.5526" xlink:href="#TJS_Gradient"/><linearGradient id="TJS_Gradient-74" x1="227.8421" y1="227.8421" x2="227.8421" y2="2.8421" xlink:href="#TJS_Gradient"/><linearGradient id="TJS_Gradient-75" x1="227.1316" y1="227.1316" x2="227.1316" y2="2.1316" xlink:href="#TJS_Gradient"/><linearGradient id="TJS_Gradient-76" x1="226.4211" y1="226.4211" x2="226.4211" y2="1.4211" xlink:href="#TJS_Gradient"/><linearGradient id="TJS_Gradient-77" x1="225.7105" y1="225.7105" x2="225.7105" y2=".7105" xlink:href="#TJS_Gradient"/><linearGradient id="TJS_Gradient-78" x1="225" y1="225" x2="225" y2="0" xlink:href="#TJS_Gradient"/><linearGradient id="TJS_Gradient-79" x1="288" y1="333" x2="288" xlink:href="#TJS_Gradient"/><linearGradient id="TJS_Gradient-80" x1="287.2895" y1="332.2895" x2="287.2895" y2="26.2895" xlink:href="#TJS_Gradient"/><linearGradient id="TJS_Gradient-81" x1="286.5789" y1="331.5789" x2="286.5789" y2="25.5789" xlink:href="#TJS_Gradient"/><linearGradient id="TJS_Gradient-82" x1="285.8684" y1="330.8684" x2="285.8684" y2="24.8684" xlink:href="#TJS_Gradient"/><linearGradient id="TJS_Gradient-83" x1="285.1579" y1="330.1579" x2="285.1579" y2="24.1579" xlink:href="#TJS_Gradient"/><linearGradient id="TJS_Gradient-84" x1="284.4474" y1="329.4474" x2="284.4474" y2="23.4474" xlink:href="#TJS_Gradient"/><linearGradient id="TJS_Gradient-85" x1="283.7368" y1="328.7368" x2="283.7368" y2="22.7368" xlink:href="#TJS_Gradient"/><linearGradient id="TJS_Gradient-86" x1="283.0263" y1="328.0263" x2="283.0263" y2="22.0263" xlink:href="#TJS_Gradient"/><linearGradient id="TJS_Gradient-87" x1="282.3158" y1="327.3158" x2="282.3158" y2="21.3158" xlink:href="#TJS_Gradient"/><linearGradient id="TJS_Gradient-88" x1="281.6053" y1="326.6053" x2="281.6053" y2="20.6053" xlink:href="#TJS_Gradient"/><linearGradient id="TJS_Gradient-89" x1="280.8947" y1="325.8947" x2="280.8947" y2="19.8947" xlink:href="#TJS_Gradient"/><linearGradient id="TJS_Gradient-90" x1="280.1842" y1="325.1842" x2="280.1842" y2="19.1842" xlink:href="#TJS_Gradient"/><linearGradient id="TJS_Gradient-91" x1="279.4737" y1="324.4737" x2="279.4737" y2="18.4737" xlink:href="#TJS_Gradient"/><linearGradient id="TJS_Gradient-92" x1="278.7632" y1="323.7632" x2="278.7632" y2="17.7632" xlink:href="#TJS_Gradient"/><linearGradient id="TJS_Gradient-93" x1="278.0526" y1="323.0526" x2="278.0526" y2="17.0526" xlink:href="#TJS_Gradient"/><linearGradient id="TJS_Gradient-94" x1="277.3421" y1="322.3421" x2="277.3421" y2="16.3421" xlink:href="#TJS_Gradient"/><linearGradient id="TJS_Gradient-95" x1="276.6316" y1="321.6316" x2="276.6316" y2="15.6316" xlink:href="#TJS_Gradient"/><linearGradient id="TJS_Gradient-96" x1="275.9211" y1="320.9211" x2="275.9211" y2="14.9211" xlink:href="#TJS_Gradient"/><linearGradient id="TJS_Gradient-97" x1="275.2105" y1="320.2105" x2="275.2105" y2="14.2105" xlink:href="#TJS_Gradient"/><linearGradient id="TJS_Gradient-98" x1="274.5" y1="319.5" x2="274.5" y2="13.5" xlink:href="#TJS_Gradient"/><linearGradient id="TJS_Gradient-99" x1="273.7895" y1="318.7895" x2="273.7895" y2="12.7895" xlink:href="#TJS_Gradient"/><linearGradient id="TJS_Gradient-100" x1="273.0789" y1="318.0789" x2="273.0789" y2="12.0789" xlink:href="#TJS_Gradient"/><linearGradient id="TJS_Gradient-101" x1="272.3684" y1="317.3684" x2="272.3684" y2="11.3684" xlink:href="#TJS_Gradient"/><linearGradient id="TJS_Gradient-102" x1="271.6579" y1="316.6579" x2="271.6579" y2="10.6579" xlink:href="#TJS_Gradient"/><linearGradient id="TJS_Gradient-103" x1="270.9474" y1="315.9474" x2="270.9474" y2="9.9474" xlink:href="#TJS_Gradient"/><linearGradient id="TJS_Gradient-104" x1="270.2368" y1="315.2368" x2="270.2368" y2="9.2368" xlink:href="#TJS_Gradient"/><linearGradient id="TJS_Gradient-105" x1="269.5263" y1="314.5263" x2="269.5263" y2="8.5263" xlink:href="#TJS_Gradient"/><linearGradient id="TJS_Gradient-106" x1="268.8158" y1="313.8158" x2="268.8158" y2="7.8158" xlink:href="#TJS_Gradient"/><linearGradient id="TJS_Gradient-107" x1="268.1053" y1="313.1053" x2="268.1053" y2="7.1053" xlink:href="#TJS_Gradient"/><linearGradient id="TJS_Gradient-108" x1="267.3947" y1="312.3947" x2="267.3947" y2="6.3947" xlink:href="#TJS_Gradient"/><linearGradient id="TJS_Gradient-109" x1="266.6842" y1="311.6842" x2="266.6842" y2="5.6842" xlink:href="#TJS_Gradient"/><linearGradient id="TJS_Gradient-110" x1="265.9737" y1="310.9737" x2="265.9737" y2="4.9737" xlink:href="#TJS_Gradient"/><linearGradient id="TJS_Gradient-111" x1="265.2632" y1="310.2632" x2="265.2632" y2="4.2632" xlink:href="#TJS_Gradient"/><linearGradient id="TJS_Gradient-112" x1="264.5526" y1="309.5526" x2="264.5526" y2="3.5526" xlink:href="#TJS_Gradient"/><linearGradient id="TJS_Gradient-113" x1="263.8421" y1="308.8421" x2="263.8421" y2="2.8421" xlink:href="#TJS_Gradient"/><linearGradient id="TJS_Gradient-114" x1="263.1316" y1="308.1316" x2="263.1316" y2="2.1316" xlink:href="#TJS_Gradient"/><linearGradient id="TJS_Gradient-115" x1="262.4211" y1="307.4211" x2="262.4211" y2="1.4211" xlink:href="#TJS_Gradient"/><linearGradient id="TJS_Gradient-116" x1="261.7105" y1="306.7105" x2="261.7105" y2=".7105" xlink:href="#TJS_Gradient"/><linearGradient id="TJS_Gradient-117" x1="261" y1="306" x2="261" y2="0" xlink:href="#TJS_Gradient"/></defs><path class="cls-19" d="m243,36c0-4.9706-4.0294-9-9-9H36c-4.9706,0-9,4.0294-9,9v45c0,4.9706,4.0294,9,9,9h54c4.9706,0,9,4.0294,9,9v144c0,4.9706,4.0294,9,9,9h54c4.9706,0,9-4.0294,9-9V99c0-4.9706,4.0294-9,9-9h54c4.9706,0,9-4.0294,9-9v-45Z"/><path class="cls-96" d="m242.2895,35.2895c0-4.9706-4.0294-9-9-9H35.2895c-4.9706,0-9,4.0294-9,9v45c0,4.9706,4.0294,9,9,9h54c4.9706,0,9,4.0294,9,9v144c0,4.9706,4.0294,9,9,9h54c4.9706,0,9-4.0294,9-9V98.2895c0-4.9706,4.0294-9,9-9h54c4.9706,0,9-4.0294,9-9v-45Z"/><path class="cls-90" d="m241.5789,34.5789c0-4.9706-4.0294-9-9-9H34.5789c-4.9706,0-9,4.0294-9,9v45c0,4.9706,4.0294,9,9,9h54c4.9706,0,9,4.0294,9,9v144c0,4.9706,4.0294,9,9,9h54c4.9706,0,9-4.0294,9-9V97.5789c0-4.9706,4.0294-9,9-9h54c4.9706,0,9-4.0294,9-9v-45Z"/><path class="cls-80" d="m240.8684,33.8684c0-4.9706-4.0294-9-9-9H33.8684c-4.9706,0-9,4.0294-9,9v45c0,4.9706,4.0294,9,9,9h54c4.9706,0,9,4.0294,9,9v144c0,4.9706,4.0294,9,9,9h54c4.9706,0,9-4.0294,9-9V96.8684c0-4.9706,4.0294-9,9-9h54c4.9706,0,9-4.0294,9-9v-45Z"/><path class="cls-33" d="m240.1579,33.1579c0-4.9706-4.0294-9-9-9H33.1579c-4.9706,0-9,4.0294-9,9v45c0,4.9706,4.0294,9,9,9h54c4.9706,0,9,4.0294,9,9v144c0,4.9706,4.0294,9,9,9h54c4.9706,0,9-4.0294,9-9V96.1579c0-4.9706,4.0294-9,9-9h54c4.9706,0,9-4.0294,9-9v-45Z"/><path class="cls-112" d="m239.4474,32.4474c0-4.9706-4.0294-9-9-9H32.4474c-4.9706,0-9,4.0294-9,9v45c0,4.9706,4.0294,9,9,9h54c4.9706,0,9,4.0294,9,9v144c0,4.9706,4.0294,9,9,9h54c4.9706,0,9-4.0294,9-9V95.4474c0-4.9706,4.0294-9,9-9h54c4.9706,0,9-4.0294,9-9v-45Z"/><path class="cls-109" d="m238.7368,31.7368c0-4.9706-4.0294-9-9-9H31.7368c-4.9706,0-9,4.0294-9,9v45c0,4.9706,4.0294,9,9,9h54c4.9706,0,9,4.0294,9,9v144c0,4.9706,4.0294,9,9,9h54c4.9706,0,9-4.0294,9-9V94.7368c0-4.9706,4.0294-9,9-9h54c4.9706,0,9-4.0294,9-9V31.7368Z"/><path class="cls-74" d="m238.0263,31.0263c0-4.9706-4.0294-9-9-9H31.0263c-4.9706,0-9,4.0294-9,9v45c0,4.9706,4.0294,9,9,9h54c4.9706,0,9,4.0294,9,9v144c0,4.9706,4.0294,9,9,9h54c4.9706,0,9-4.0294,9-9V94.0263c0-4.9706,4.0294-9,9-9h54c4.9706,0,9-4.0294,9-9V31.0263Z"/><path class="cls-59" d="m237.3158,30.3158c0-4.9706-4.0294-9-9-9H30.3158c-4.9706,0-9,4.0294-9,9v45c0,4.9706,4.0294,9,9,9h54c4.9706,0,9,4.0294,9,9v144c0,4.9706,4.0294,9,9,9h54c4.9706,0,9-4.0294,9-9V93.3158c0-4.9706,4.0294-9,9-9h54c4.9706,0,9-4.0294,9-9V30.3158Z"/><path class="cls-82" d="m236.6053,29.6053c0-4.9706-4.0294-9-9-9H29.6053c-4.9706,0-9,4.0294-9,9v45c0,4.9706,4.0294,9,9,9h54c4.9706,0,9,4.0294,9,9v144c0,4.9706,4.0294,9,9,9h54c4.9706,0,9-4.0294,9-9V92.6053c0-4.9706,4.0294-9,9-9h54c4.9706,0,9-4.0294,9-9V29.6053Z"/><path class="cls-55" d="m235.8947,28.8947c0-4.9706-4.0294-9-9-9H28.8947c-4.9706,0-9,4.0294-9,9v45c0,4.9706,4.0294,9,9,9h54c4.9706,0,9,4.0294,9,9v144c0,4.9706,4.0294,9,9,9h54c4.9706,0,9-4.0294,9-9V91.8947c0-4.9706,4.0294-9,9-9h54c4.9706,0,9-4.0294,9-9V28.8947Z"/><path class="cls-117" d="m235.1842,28.1842c0-4.9706-4.0294-9-9-9H28.1842c-4.9706,0-9,4.0294-9,9v45c0,4.9706,4.0294,9,9,9h54c4.9706,0,9,4.0294,9,9v144c0,4.9706,4.0294,9,9,9h54c4.9706,0,9-4.0294,9-9V91.1842c0-4.9706,4.0294-9,9-9h54c4.9706,0,9-4.0294,9-9V28.1842Z"/><path class="cls-43" d="m234.4737,27.4737c0-4.9706-4.0294-9-9-9H27.4737c-4.9706,0-9,4.0294-9,9v45c0,4.9706,4.0294,9,9,9h54c4.9706,0,9,4.0294,9,9v144c0,4.9706,4.0294,9,9,9h54c4.9706,0,9-4.0294,9-9V90.4737c0-4.9706,4.0294-9,9-9h54c4.9706,0,9-4.0294,9-9V27.4737Z"/><path class="cls-92" d="m233.7632,26.7631c0-4.9706-4.0294-9-9-9H26.7631c-4.9706,0-9,4.0294-9,9v45c0,4.9706,4.0294,9,9,9h54c4.9706,0,9,4.0294,9,9v144c0,4.9706,4.0294,9,9,9h54c4.9706,0,9-4.0294,9-9V89.7631c0-4.9706,4.0294-9,9-9h54c4.9706,0,9-4.0294,9-9V26.7631Z"/><path class="cls-99" d="m233.0526,26.0526c0-4.9706-4.0294-9-9-9H26.0526c-4.9706,0-9,4.0294-9,9v45c0,4.9706,4.0294,9,9,9h54c4.9706,0,9,4.0294,9,9v144c0,4.9706,4.0294,9,9,9h54c4.9706,0,9-4.0294,9-9V89.0526c0-4.9706,4.0294-9,9-9h54c4.9706,0,9-4.0294,9-9V26.0526Z"/><path class="cls-36" d="m232.3421,25.3421c0-4.9706-4.0294-9-9-9H25.3421c-4.9706,0-9,4.0294-9,9v45c0,4.9706,4.0294,9,9,9h54c4.9706,0,9,4.0294,9,9v144c0,4.9706,4.0294,9,9,9h54c4.9706,0,9-4.0294,9-9V88.3421c0-4.9706,4.0294-9,9-9h54c4.9706,0,9-4.0294,9-9V25.3421Z"/><path class="cls-72" d="m231.6316,24.6316c0-4.9706-4.0294-9-9-9H24.6316c-4.9706,0-9,4.0294-9,9v45c0,4.9706,4.0294,9,9,9h54c4.9706,0,9,4.0294,9,9v144c0,4.9706,4.0294,9,9,9h54c4.9706,0,9-4.0294,9-9V87.6316c0-4.9706,4.0294-9,9-9h54c4.9706,0,9-4.0294,9-9V24.6316Z"/><path class="cls-81" d="m230.9211,23.921c0-4.9706-4.0294-9-9-9H23.921c-4.9706,0-9,4.0294-9,9v45c0,4.9706,4.0294,9,9,9h54c4.9706,0,9,4.0294,9,9v144c0,4.9706,4.0294,9,9,9h54c4.9706,0,9-4.0294,9-9V86.921c0-4.9706,4.0294-9,9-9h54c4.9706,0,9-4.0294,9-9V23.921Z"/><path class="cls-35" d="m230.2105,23.2105c0-4.9706-4.0294-9-9-9H23.2105c-4.9706,0-9,4.0294-9,9v45c0,4.9706,4.0294,9,9,9h54c4.9706,0,9,4.0294,9,9v144c0,4.9706,4.0294,9,9,9h54c4.9706,0,9-4.0294,9-9V86.2105c0-4.9706,4.0294-9,9-9h54c4.9706,0,9-4.0294,9-9V23.2105Z"/><path class="cls-24" d="m229.5,22.5c0-4.9706-4.0294-9-9-9H22.5c-4.9706,0-9,4.0294-9,9v45c0,4.9706,4.0294,9,9,9h54c4.9706,0,9,4.0294,9,9v144c0,4.9706,4.0294,9,9,9h54c4.9706,0,9-4.0294,9-9V85.5c0-4.9706,4.0294-9,9-9h54c4.9706,0,9-4.0294,9-9V22.5Z"/><path class="cls-70" d="m228.7895,21.7895c0-4.9706-4.0294-9-9-9H21.7895c-4.9706,0-9,4.0294-9,9v45c0,4.9706,4.0294,9,9,9h54c4.9706,0,9,4.0294,9,9v144c0,4.9706,4.0294,9,9,9h54c4.9706,0,9-4.0294,9-9V84.7895c0-4.9706,4.0294-9,9-9h54c4.9706,0,9-4.0294,9-9V21.7895Z"/><path class="cls-58" d="m228.0789,21.0789c0-4.9706-4.0294-9-9-9H21.0789c-4.9706,0-9,4.0294-9,9v45c0,4.9706,4.0294,9,9,9h54c4.9706,0,9,4.0294,9,9v144c0,4.9706,4.0294,9,9,9h54c4.9706,0,9-4.0294,9-9V84.0789c0-4.9706,4.0294-9,9-9h54c4.9706,0,9-4.0294,9-9V21.0789Z"/><path class="cls-69" d="m227.3684,20.3684c0-4.9706-4.0294-9-9-9H20.3684c-4.9706,0-9,4.0294-9,9v45c0,4.9706,4.0294,9,9,9h54c4.9706,0,9,4.0294,9,9v144c0,4.9706,4.0294,9,9,9h54c4.9706,0,9-4.0294,9-9V83.3684c0-4.9706,4.0294-9,9-9h54c4.9706,0,9-4.0294,9-9V20.3684Z"/><path class="cls-108" d="m226.6579,19.6579c0-4.9706-4.0294-9-9-9H19.6579c-4.9706,0-9,4.0294-9,9v45c0,4.9706,4.0294,9,9,9h54c4.9706,0,9,4.0294,9,9v144c0,4.9706,4.0294,9,9,9h54c4.9706,0,9-4.0294,9-9V82.6579c0-4.9706,4.0294-9,9-9h54c4.9706,0,9-4.0294,9-9V19.6579Z"/><path class="cls-95" d="m225.9474,18.9474c0-4.9706-4.0294-9-9-9H18.9474c-4.9706,0-9,4.0294-9,9v45c0,4.9706,4.0294,9,9,9h54c4.9706,0,9,4.0294,9,9v144c0,4.9706,4.0294,9,9,9h54c4.9706,0,9-4.0294,9-9V81.9474c0-4.9706,4.0294-9,9-9h54c4.9706,0,9-4.0294,9-9V18.9474Z"/><path class="cls-118" d="m225.2368,18.2368c0-4.9706-4.0294-9-9-9H18.2368c-4.9706,0-9,4.0294-9,9v45c0,4.9706,4.0294,9,9,9h54c4.9706,0,9,4.0294,9,9v144c0,4.9706,4.0294,9,9,9h54c4.9706,0,9-4.0294,9-9V81.2368c0-4.9706,4.0294-9,9-9h54c4.9706,0,9-4.0294,9-9V18.2368Z"/><path class="cls-34" d="m224.5263,17.5263c0-4.9706-4.0294-9-9-9H17.5263c-4.9706,0-9,4.0294-9,9v45c0,4.9706,4.0294,9,9,9h54c4.9706,0,9,4.0294,9,9v144c0,4.9706,4.0294,9,9,9h54c4.9706,0,9-4.0294,9-9V80.5263c0-4.9706,4.0294-9,9-9h54c4.9706,0,9-4.0294,9-9V17.5263Z"/><path class="cls-66" d="m223.8158,16.8158c0-4.9706-4.0294-9-9-9H16.8158c-4.9706,0-9,4.0294-9,9v45c0,4.9706,4.0294,9,9,9h54c4.9706,0,9,4.0294,9,9v144c0,4.9706,4.0294,9,9,9h54c4.9706,0,9-4.0294,9-9V79.8158c0-4.9706,4.0294-9,9-9h54c4.9706,0,9-4.0294,9-9V16.8158Z"/><path class="cls-107" d="m223.1053,16.1053c0-4.9706-4.0294-9-9-9H16.1053c-4.9706,0-9,4.0294-9,9v45c0,4.9706,4.0294,9,9,9h54c4.9706,0,9,4.0294,9,9v144c0,4.9706,4.0294,9,9,9h54c4.9706,0,9-4.0294,9-9V79.1053c0-4.9706,4.0294-9,9-9h54c4.9706,0,9-4.0294,9-9V16.1053Z"/><path class="cls-63" d="m222.3947,15.3947c0-4.9706-4.0294-9-9-9H15.3947c-4.9706,0-9,4.0294-9,9v45c0,4.9706,4.0294,9,9,9h54c4.9706,0,9,4.0294,9,9v144c0,4.9706,4.0294,9,9,9h54c4.9706,0,9-4.0294,9-9V78.3947c0-4.9706,4.0294-9,9-9h54c4.9706,0,9-4.0294,9-9V15.3947Z"/><path class="cls-32" d="m221.6842,14.6842c0-4.9706-4.0294-9-9-9H14.6842c-4.9706,0-9,4.0294-9,9v45c0,4.9706,4.0294,9,9,9h54c4.9706,0,9,4.0294,9,9v144c0,4.9706,4.0294,9,9,9h54c4.9706,0,9-4.0294,9-9V77.6842c0-4.9706,4.0294-9,9-9h54c4.9706,0,9-4.0294,9-9V14.6842Z"/><path class="cls-14" d="m220.9737,13.9737c0-4.9706-4.0294-9-9-9H13.9737c-4.9706,0-9,4.0294-9,9v45c0,4.9706,4.0294,9,9,9h54c4.9706,0,9,4.0294,9,9v144c0,4.9706,4.0294,9,9,9h54c4.9706,0,9-4.0294,9-9V76.9737c0-4.9706,4.0294-9,9-9h54c4.9706,0,9-4.0294,9-9V13.9737Z"/><path class="cls-45" d="m220.2632,13.2631c0-4.9706-4.0294-9-9-9H13.2631c-4.9706,0-9,4.0294-9,9v45c0,4.9706,4.0294,9,9,9h54c4.9706,0,9,4.0294,9,9v144c0,4.9706,4.0294,9,9,9h54c4.9706,0,9-4.0294,9-9V76.2631c0-4.9706,4.0294-9,9-9h54c4.9706,0,9-4.0294,9-9V13.2631Z"/><path class="cls-94" d="m219.5526,12.5526c0-4.9706-4.0294-9-9-9H12.5526C7.5821,3.5526,3.5526,7.5821,3.5526,12.5526v45c0,4.9706,4.0294,9,9,9h54c4.9706,0,9,4.0294,9,9v144c0,4.9706,4.0294,9,9,9h54c4.9706,0,9-4.0294,9-9V75.5526c0-4.9706,4.0294-9,9-9h54c4.9706,0,9-4.0294,9-9V12.5526Z"/><path class="cls-15" d="m218.8421,11.8421c0-4.9706-4.0294-9-9-9H11.8421C6.8715,2.8421,2.8421,6.8715,2.8421,11.8421v45c0,4.9706,4.0294,9,9,9h54c4.9706,0,9,4.0294,9,9v144c0,4.9706,4.0294,9,9,9h54c4.9706,0,9-4.0294,9-9V74.8421c0-4.9706,4.0294-9,9-9h54c4.9706,0,9-4.0294,9-9V11.8421Z"/><path class="cls-101" d="m218.1316,11.1316c0-4.9706-4.0294-9-9-9H11.1316C6.161,2.1316,2.1316,6.161,2.1316,11.1316v45c0,4.9706,4.0294,9,9,9h54c4.9706,0,9,4.0294,9,9v144c0,4.9706,4.0294,9,9,9h54c4.9706,0,9-4.0294,9-9V74.1316c0-4.9706,4.0294-9,9-9h54c4.9706,0,9-4.0294,9-9V11.1316Z"/><path class="cls-22" d="m217.4211,10.421c0-4.9706-4.0294-9-9-9H10.421C5.4505,1.4211,1.4211,5.4505,1.4211,10.421v45c0,4.9706,4.0294,9,9,9h54c4.9706,0,9,4.0294,9,9v144c0,4.9706,4.0294,9,9,9h54c4.9706,0,9-4.0294,9-9V73.421c0-4.9706,4.0294-9,9-9h54c4.9706,0,9-4.0294,9-9V10.421Z"/><path class="cls-20" d="m216.7105,9.7105c0-4.9706-4.0294-9-9-9H9.7105C4.74.7105.7105,4.74.7105,9.7105v45c0,4.9706,4.0294,9,9,9h54c4.9706,0,9,4.0294,9,9v144c0,4.9706,4.0294,9,9,9h54c4.9706,0,9-4.0294,9-9V72.7105c0-4.9706,4.0294-9,9-9h54c4.9706,0,9-4.0294,9-9V9.7105Z"/><path class="cls-73" d="m216,9c0-4.9706-4.0294-9-9-9H9C4.0294,0,0,4.0294,0,9v45c0,4.9706,4.0294,9,9,9h54c4.9706,0,9,4.0294,9,9v144c0,4.9706,4.0294,9,9,9h54c4.9706,0,9-4.0294,9-9V72c0-4.9706,4.0294-9,9-9h54c4.9706,0,9-4.0294,9-9V9Z"/><path class="cls-83" d="m252,36v135c0,4.9706-4.0294,9-9,9h-54c-4.9706,0-9,4.0294-9,9v54c0,4.9706,4.0294,9,9,9h126c4.9706,0,9-4.0294,9-9V36c0-4.9706-4.0294-9-9-9h-54c-4.9706,0-9,4.0294-9,9Z"/><path class="cls-104" d="m251.2895,35.2895v135c0,4.9706-4.0294,9-9,9h-54c-4.9706,0-9,4.0294-9,9v54c0,4.9706,4.0294,9,9,9h126c4.9706,0,9-4.0294,9-9V35.2895c0-4.9706-4.0294-9-9-9h-54c-4.9706,0-9,4.0294-9,9Z"/><path class="cls-48" d="m250.5789,34.5789v135c0,4.9706-4.0294,9-9,9h-54c-4.9706,0-9,4.0294-9,9v54c0,4.9706,4.0294,9,9,9h126c4.9706,0,9-4.0294,9-9V34.5789c0-4.9706-4.0294-9-9-9h-54c-4.9706,0-9,4.0294-9,9Z"/><path class="cls-102" d="m249.8684,33.8684v135c0,4.9706-4.0294,9-9,9h-54c-4.9706,0-9,4.0294-9,9v54c0,4.9706,4.0294,9,9,9h126c4.9706,0,9-4.0294,9-9V33.8684c0-4.9706-4.0294-9-9-9h-54c-4.9706,0-9,4.0294-9,9Z"/><path class="cls-110" d="m249.1579,33.1579v135c0,4.9706-4.0294,9-9,9h-54c-4.9706,0-9,4.0294-9,9v54c0,4.9706,4.0294,9,9,9h126c4.9706,0,9-4.0294,9-9V33.1579c0-4.9706-4.0294-9-9-9h-54c-4.9706,0-9,4.0294-9,9Z"/><path class="cls-4" d="m248.4474,32.4474v135c0,4.9706-4.0294,9-9,9h-54c-4.9706,0-9,4.0294-9,9v54c0,4.9706,4.0294,9,9,9h126c4.9706,0,9-4.0294,9-9V32.4474c0-4.9706-4.0294-9-9-9h-54c-4.9706,0-9,4.0294-9,9Z"/><path class="cls-111" d="m247.7368,31.7368v135c0,4.9706-4.0294,9-9,9h-54c-4.9706,0-9,4.0294-9,9v54c0,4.9706,4.0294,9,9,9h126c4.9706,0,9-4.0294,9-9V31.7368c0-4.9706-4.0294-9-9-9h-54c-4.9706,0-9,4.0294-9,9Z"/><path class="cls-78" d="m247.0263,31.0263v135c0,4.9706-4.0294,9-9,9h-54c-4.9706,0-9,4.0294-9,9v54c0,4.9706,4.0294,9,9,9h126c4.9706,0,9-4.0294,9-9V31.0263c0-4.9706-4.0294-9-9-9h-54c-4.9706,0-9,4.0294-9,9Z"/><path class="cls-89" d="m246.3158,30.3158v135c0,4.9706-4.0294,9-9,9h-54c-4.9706,0-9,4.0294-9,9v54c0,4.9706,4.0294,9,9,9h126c4.9706,0,9-4.0294,9-9V30.3158c0-4.9706-4.0294-9-9-9h-54c-4.9706,0-9,4.0294-9,9Z"/><path class="cls-11" d="m245.6053,29.6053v135c0,4.9706-4.0294,9-9,9h-54c-4.9706,0-9,4.0294-9,9v54c0,4.9706,4.0294,9,9,9h126c4.9706,0,9-4.0294,9-9V29.6053c0-4.9706-4.0294-9-9-9h-54c-4.9706,0-9,4.0294-9,9Z"/><path class="cls-26" d="m244.8947,28.8947v135c0,4.9706-4.0294,9-9,9h-54c-4.9706,0-9,4.0294-9,9v54c0,4.9706,4.0294,9,9,9h126c4.9706,0,9-4.0294,9-9V28.8947c0-4.9706-4.0294-9-9-9h-54c-4.9706,0-9,4.0294-9,9Z"/><path class="cls-28" d="m244.1842,28.1842v135c0,4.9706-4.0294,9-9,9h-54c-4.9706,0-9,4.0294-9,9v54c0,4.9706,4.0294,9,9,9h126c4.9706,0,9-4.0294,9-9V28.1842c0-4.9706-4.0294-9-9-9h-54c-4.9706,0-9,4.0294-9,9Z"/><path class="cls-6" d="m243.4737,27.4737v135c0,4.9706-4.0294,9-9,9h-54c-4.9706,0-9,4.0294-9,9v54c0,4.9706,4.0294,9,9,9h126c4.9706,0,9-4.0294,9-9V27.4737c0-4.9706-4.0294-9-9-9h-54c-4.9706,0-9,4.0294-9,9Z"/><path class="cls-21" d="m242.7632,26.7631v135c0,4.9706-4.0294,9-9,9h-54c-4.9706,0-9,4.0294-9,9v54c0,4.9706,4.0294,9,9,9h126c4.9706,0,9-4.0294,9-9V26.7631c0-4.9706-4.0294-9-9-9h-54c-4.9706,0-9,4.0294-9,9Z"/><path class="cls-97" d="m242.0526,26.0526v135c0,4.9706-4.0294,9-9,9h-54c-4.9706,0-9,4.0294-9,9v54c0,4.9706,4.0294,9,9,9h126c4.9706,0,9-4.0294,9-9V26.0526c0-4.9706-4.0294-9-9-9h-54c-4.9706,0-9,4.0294-9,9Z"/><path class="cls-38" d="m241.3421,25.3421v135c0,4.9706-4.0294,9-9,9h-54c-4.9706,0-9,4.0294-9,9v54c0,4.9706,4.0294,9,9,9h126c4.9706,0,9-4.0294,9-9V25.3421c0-4.9706-4.0294-9-9-9h-54c-4.9706,0-9,4.0294-9,9Z"/><path class="cls-64" d="m240.6316,24.6316v135c0,4.9706-4.0294,9-9,9h-54c-4.9706,0-9,4.0294-9,9v54c0,4.9706,4.0294,9,9,9h126c4.9706,0,9-4.0294,9-9V24.6316c0-4.9706-4.0294-9-9-9h-54c-4.9706,0-9,4.0294-9,9Z"/><path class="cls-1" d="m239.9211,23.921v135c0,4.9706-4.0294,9-9,9h-54c-4.9706,0-9,4.0294-9,9v54c0,4.9706,4.0294,9,9,9h126c4.9706,0,9-4.0294,9-9V23.921c0-4.9706-4.0294-9-9-9h-54c-4.9706,0-9,4.0294-9,9Z"/><path class="cls-40" d="m239.2105,23.2105v135c0,4.9706-4.0294,9-9,9h-54c-4.9706,0-9,4.0294-9,9v54c0,4.9706,4.0294,9,9,9h126c4.9706,0,9-4.0294,9-9V23.2105c0-4.9706-4.0294-9-9-9h-54c-4.9706,0-9,4.0294-9,9Z"/><path class="cls-98" d="m238.5,22.5v135c0,4.9706-4.0294,9-9,9h-54c-4.9706,0-9,4.0294-9,9v54c0,4.9706,4.0294,9,9,9h126c4.9706,0,9-4.0294,9-9V22.5c0-4.9706-4.0294-9-9-9h-54c-4.9706,0-9,4.0294-9,9Z"/><path class="cls-53" d="m237.7895,21.7895v135c0,4.9706-4.0294,9-9,9h-54c-4.9706,0-9,4.0294-9,9v54c0,4.9706,4.0294,9,9,9h126c4.9706,0,9-4.0294,9-9V21.7895c0-4.9706-4.0294-9-9-9h-54c-4.9706,0-9,4.0294-9,9Z"/><path class="cls-51" d="m237.0789,21.0789v135c0,4.9706-4.0294,9-9,9h-54c-4.9706,0-9,4.0294-9,9v54c0,4.9706,4.0294,9,9,9h126c4.9706,0,9-4.0294,9-9V21.0789c0-4.9706-4.0294-9-9-9h-54c-4.9706,0-9,4.0294-9,9Z"/><path class="cls-50" d="m236.3684,20.3684v135c0,4.9706-4.0294,9-9,9h-54c-4.9706,0-9,4.0294-9,9v54c0,4.9706,4.0294,9,9,9h126c4.9706,0,9-4.0294,9-9V20.3684c0-4.9706-4.0294-9-9-9h-54c-4.9706,0-9,4.0294-9,9Z"/><path class="cls-3" d="m235.6579,19.6579v135c0,4.9706-4.0294,9-9,9h-54c-4.9706,0-9,4.0294-9,9v54c0,4.9706,4.0294,9,9,9h126c4.9706,0,9-4.0294,9-9V19.6579c0-4.9706-4.0294-9-9-9h-54c-4.9706,0-9,4.0294-9,9Z"/><path class="cls-5" d="m234.9474,18.9474v135c0,4.9706-4.0294,9-9,9h-54c-4.9706,0-9,4.0294-9,9v54c0,4.9706,4.0294,9,9,9h126c4.9706,0,9-4.0294,9-9V18.9474c0-4.9706-4.0294-9-9-9h-54c-4.9706,0-9,4.0294-9,9Z"/><path class="cls-8" d="m234.2368,18.2368v135c0,4.9706-4.0294,9-9,9h-54c-4.9706,0-9,4.0294-9,9v54c0,4.9706,4.0294,9,9,9h126c4.9706,0,9-4.0294,9-9V18.2368c0-4.9706-4.0294-9-9-9h-54c-4.9706,0-9,4.0294-9,9Z"/><path class="cls-41" d="m233.5263,17.5263v135c0,4.9706-4.0294,9-9,9h-54c-4.9706,0-9,4.0294-9,9v54c0,4.9706,4.0294,9,9,9h126c4.9706,0,9-4.0294,9-9V17.5263c0-4.9706-4.0294-9-9-9h-54c-4.9706,0-9,4.0294-9,9Z"/><path class="cls-23" d="m232.8158,16.8158v135c0,4.9706-4.0294,9-9,9h-54c-4.9706,0-9,4.0294-9,9v54c0,4.9706,4.0294,9,9,9h126c4.9706,0,9-4.0294,9-9V16.8158c0-4.9706-4.0294-9-9-9h-54c-4.9706,0-9,4.0294-9,9Z"/><path class="cls-84" d="m232.1053,16.1053v135c0,4.9706-4.0294,9-9,9h-54c-4.9706,0-9,4.0294-9,9v54c0,4.9706,4.0294,9,9,9h126c4.9706,0,9-4.0294,9-9V16.1053c0-4.9706-4.0294-9-9-9h-54c-4.9706,0-9,4.0294-9,9Z"/><path class="cls-103" d="m231.3947,15.3947v135c0,4.9706-4.0294,9-9,9h-54c-4.9706,0-9,4.0294-9,9v54c0,4.9706,4.0294,9,9,9h126c4.9706,0,9-4.0294,9-9V15.3947c0-4.9706-4.0294-9-9-9h-54c-4.9706,0-9,4.0294-9,9Z"/><path class="cls-46" d="m230.6842,14.6842v135c0,4.9706-4.0294,9-9,9h-54c-4.9706,0-9,4.0294-9,9v54c0,4.9706,4.0294,9,9,9h126c4.9706,0,9-4.0294,9-9V14.6842c0-4.9706-4.0294-9-9-9h-54c-4.9706,0-9,4.0294-9,9Z"/><path class="cls-87" d="m229.9737,13.9737v135c0,4.9706-4.0294,9-9,9h-54c-4.9706,0-9,4.0294-9,9v54c0,4.9706,4.0294,9,9,9h126c4.9706,0,9-4.0294,9-9V13.9737c0-4.9706-4.0294-9-9-9h-54c-4.9706,0-9,4.0294-9,9Z"/><path class="cls-10" d="m229.2632,13.2631v135c0,4.9706-4.0294,9-9,9h-54c-4.9706,0-9,4.0294-9,9v54c0,4.9706,4.0294,9,9,9h126c4.9706,0,9-4.0294,9-9V13.2631c0-4.9706-4.0294-9-9-9h-54c-4.9706,0-9,4.0294-9,9Z"/><path class="cls-49" d="m228.5526,12.5526v135c0,4.9706-4.0294,9-9,9h-54c-4.9706,0-9,4.0294-9,9v54c0,4.9706,4.0294,9,9,9h126c4.9706,0,9-4.0294,9-9V12.5526c0-4.9706-4.0294-9-9-9h-54c-4.9706,0-9,4.0294-9,9Z"/><path class="cls-113" d="m227.8421,11.8421v135c0,4.9706-4.0294,9-9,9h-54c-4.9706,0-9,4.0294-9,9v54c0,4.9706,4.0294,9,9,9h126c4.9706,0,9-4.0294,9-9V11.8421c0-4.9706-4.0294-9-9-9h-54c-4.9706,0-9,4.0294-9,9Z"/><path class="cls-115" d="m227.1316,11.1316v135c0,4.9706-4.0294,9-9,9h-54c-4.9706,0-9,4.0294-9,9v54c0,4.9706,4.0294,9,9,9h126c4.9706,0,9-4.0294,9-9V11.1316c0-4.9706-4.0294-9-9-9h-54c-4.9706,0-9,4.0294-9,9Z"/><path class="cls-65" d="m226.4211,10.421v135c0,4.9706-4.0294,9-9,9h-54c-4.9706,0-9,4.0294-9,9v54c0,4.9706,4.0294,9,9,9h126c4.9706,0,9-4.0294,9-9V10.421c0-4.9706-4.0294-9-9-9h-54c-4.9706,0-9,4.0294-9,9Z"/><path class="cls-77" d="m225.7105,9.7105v135c0,4.9706-4.0294,9-9,9h-54c-4.9706,0-9,4.0294-9,9v54c0,4.9706,4.0294,9,9,9h126c4.9706,0,9-4.0294,9-9V9.7105c0-4.9706-4.0294-9-9-9h-54c-4.9706,0-9,4.0294-9,9Z"/><path class="cls-67" d="m225,9v135c0,4.9706-4.0294,9-9,9h-54c-4.9706,0-9,4.0294-9,9v54c0,4.9706,4.0294,9,9,9h126c4.9706,0,9-4.0294,9-9V9c0-4.9706-4.0294-9-9-9h-54c-4.9706,0-9,4.0294-9,9Z"/><path class="cls-42" d="m477,81v-45c0-4.9706-4.0294-9-9-9h-126c-4.9706,0-9,4.0294-9,9v126c0,4.9706,4.0294,9,9,9h54c4.9706,0,9,4.0294,9,9v72c0,4.9706-4.0294,9-9,9H108c-4.9706,0-9,4.0294-9,9v54c0,4.9706,4.0294,9,9,9h360c4.9706,0,9-4.0294,9-9V117c0-4.9706-4.0294-9-9-9h-54c-4.9706,0-9-4.0294-9-9h0c0-4.9706,4.0294-9,9-9h54c4.9706,0,9-4.0294,9-9Z"/><path class="cls-114" d="m476.2895,80.2895v-45c0-4.9706-4.0294-9-9-9h-126c-4.9706,0-9,4.0294-9,9v126c0,4.9706,4.0294,9,9,9h54c4.9706,0,9,4.0294,9,9v72c0,4.9706-4.0294,9-9,9H107.2895c-4.9706,0-9,4.0294-9,9v54c0,4.9706,4.0294,9,9,9h360c4.9706,0,9-4.0294,9-9V116.2895c0-4.9706-4.0294-9-9-9h-54c-4.9706,0-9-4.0294-9-9h0c0-4.9706,4.0294-9,9-9h54c4.9706,0,9-4.0294,9-9Z"/><path class="cls-12" d="m475.5789,79.579v-45c0-4.9706-4.0294-9-9-9h-126c-4.9706,0-9,4.0294-9,9v126c0,4.9706,4.0294,9,9,9h54c4.9706,0,9,4.0294,9,9v72c0,4.9706-4.0294,9-9,9H106.5789c-4.9706,0-9,4.0294-9,9v54c0,4.9706,4.0294,9,9,9h360c4.9706,0,9-4.0294,9-9V115.5789c0-4.9706-4.0294-9-9-9h-54c-4.9706,0-9-4.0294-9-9h0c0-4.9706,4.0294-9,9-9h54c4.9706,0,9-4.0294,9-9Z"/><path class="cls-57" d="m474.8684,78.8684v-45c0-4.9706-4.0294-9-9-9h-126c-4.9706,0-9,4.0294-9,9v126c0,4.9706,4.0294,9,9,9h54c4.9706,0,9,4.0294,9,9v72c0,4.9706-4.0294,9-9,9H105.8684c-4.9706,0-9,4.0294-9,9v54c0,4.9706,4.0294,9,9,9h360c4.9706,0,9-4.0294,9-9V114.8684c0-4.9706-4.0294-9-9-9h-54c-4.9706,0-9-4.0294-9-9h0c0-4.9706,4.0294-9,9-9h54c4.9706,0,9-4.0294,9-9Z"/><path class="cls-27" d="m474.1579,78.1579v-45c0-4.9706-4.0294-9-9-9h-126c-4.9706,0-9,4.0294-9,9v126c0,4.9706,4.0294,9,9,9h54c4.9706,0,9,4.0294,9,9v72c0,4.9706-4.0294,9-9,9H105.1579c-4.9706,0-9,4.0294-9,9v54c0,4.9706,4.0294,9,9,9h360c4.9706,0,9-4.0294,9-9V114.1579c0-4.9706-4.0294-9-9-9h-54c-4.9706,0-9-4.0294-9-9h0c0-4.9706,4.0294-9,9-9h54c4.9706,0,9-4.0294,9-9Z"/><path class="cls-76" d="m473.4474,77.4474v-45c0-4.9706-4.0294-9-9-9h-126c-4.9706,0-9,4.0294-9,9v126c0,4.9706,4.0294,9,9,9h54c4.9706,0,9,4.0294,9,9v72c0,4.9706-4.0294,9-9,9H104.4474c-4.9706,0-9,4.0294-9,9v54c0,4.9706,4.0294,9,9,9h360c4.9706,0,9-4.0294,9-9V113.4474c0-4.9706-4.0294-9-9-9h-54c-4.9706,0-9-4.0294-9-9h0c0-4.9706,4.0294-9,9-9h54c4.9706,0,9-4.0294,9-9Z"/><path class="cls-47" d="m472.7368,76.7369V31.7368c0-4.9706-4.0294-9-9-9h-126c-4.9706,0-9,4.0294-9,9v126c0,4.9706,4.0294,9,9,9h54c4.9706,0,9,4.0294,9,9v72c0,4.9706-4.0294,9-9,9H103.7368c-4.9706,0-9,4.0294-9,9v54c0,4.9706,4.0294,9,9,9h360c4.9706,0,9-4.0294,9-9V112.7368c0-4.9706-4.0294-9-9-9h-54c-4.9706,0-9-4.0294-9-9h0c0-4.9706,4.0294-9,9-9h54c4.9706,0,9-4.0294,9-9Z"/><path class="cls-18" d="m472.0263,76.0263V31.0263c0-4.9706-4.0294-9-9-9h-126c-4.9706,0-9,4.0294-9,9v126c0,4.9706,4.0294,9,9,9h54c4.9706,0,9,4.0294,9,9v72c0,4.9706-4.0294,9-9,9H103.0263c-4.9706,0-9,4.0294-9,9v54c0,4.9706,4.0294,9,9,9h360c4.9706,0,9-4.0294,9-9V112.0263c0-4.9706-4.0294-9-9-9h-54c-4.9706,0-9-4.0294-9-9h0c0-4.9706,4.0294-9,9-9h54c4.9706,0,9-4.0294,9-9Z"/><path class="cls-44" d="m471.3158,75.3158V30.3158c0-4.9706-4.0294-9-9-9h-126c-4.9706,0-9,4.0294-9,9v126c0,4.9706,4.0294,9,9,9h54c4.9706,0,9,4.0294,9,9v72c0,4.9706-4.0294,9-9,9H102.3158c-4.9706,0-9,4.0294-9,9v54c0,4.9706,4.0294,9,9,9h360c4.9706,0,9-4.0294,9-9V111.3158c0-4.9706-4.0294-9-9-9h-54c-4.9706,0-9-4.0294-9-9h0c0-4.9706,4.0294-9,9-9h54c4.9706,0,9-4.0294,9-9Z"/><path class="cls-119" d="m470.6053,74.6053V29.6053c0-4.9706-4.0294-9-9-9h-126c-4.9706,0-9,4.0294-9,9v126c0,4.9706,4.0294,9,9,9h54c4.9706,0,9,4.0294,9,9v72c0,4.9706-4.0294,9-9,9H101.6053c-4.9706,0-9,4.0294-9,9v54c0,4.9706,4.0294,9,9,9h360c4.9706,0,9-4.0294,9-9V110.6053c0-4.9706-4.0294-9-9-9h-54c-4.9706,0-9-4.0294-9-9h0c0-4.9706,4.0294-9,9-9h54c4.9706,0,9-4.0294,9-9Z"/><path class="cls-75" d="m469.8947,73.8947V28.8947c0-4.9706-4.0294-9-9-9h-126c-4.9706,0-9,4.0294-9,9v126c0,4.9706,4.0294,9,9,9h54c4.9706,0,9,4.0294,9,9v72c0,4.9706-4.0294,9-9,9H100.8947c-4.9706,0-9,4.0294-9,9v54c0,4.9706,4.0294,9,9,9h360c4.9706,0,9-4.0294,9-9V109.8947c0-4.9706-4.0294-9-9-9h-54c-4.9706,0-9-4.0294-9-9h0c0-4.9706,4.0294-9,9-9h54c4.9706,0,9-4.0294,9-9Z"/><path class="cls-68" d="m469.1842,73.1842V28.1842c0-4.9706-4.0294-9-9-9h-126c-4.9706,0-9,4.0294-9,9v126c0,4.9706,4.0294,9,9,9h54c4.9706,0,9,4.0294,9,9v72c0,4.9706-4.0294,9-9,9H100.1842c-4.9706,0-9,4.0294-9,9v54c0,4.9706,4.0294,9,9,9h360c4.9706,0,9-4.0294,9-9V109.1842c0-4.9706-4.0294-9-9-9h-54c-4.9706,0-9-4.0294-9-9h0c0-4.9706,4.0294-9,9-9h54c4.9706,0,9-4.0294,9-9Z"/><path class="cls-60" d="m468.4737,72.4737V27.4737c0-4.9706-4.0294-9-9-9h-126c-4.9706,0-9,4.0294-9,9v126c0,4.9706,4.0294,9,9,9h54c4.9706,0,9,4.0294,9,9v72c0,4.9706-4.0294,9-9,9H99.4737c-4.9706,0-9,4.0294-9,9v54c0,4.9706,4.0294,9,9,9h360c4.9706,0,9-4.0294,9-9V108.4737c0-4.9706-4.0294-9-9-9h-54c-4.9706,0-9-4.0294-9-9h0c0-4.9706,4.0294-9,9-9h54c4.9706,0,9-4.0294,9-9Z"/><path class="cls-85" d="m467.7632,71.7632V26.7631c0-4.9706-4.0294-9-9-9h-126c-4.9706,0-9,4.0294-9,9v126c0,4.9706,4.0294,9,9,9h54c4.9706,0,9,4.0294,9,9v72c0,4.9706-4.0294,9-9,9H98.7631c-4.9706,0-9,4.0294-9,9v54c0,4.9706,4.0294,9,9,9h360c4.9706,0,9-4.0294,9-9V107.7631c0-4.9706-4.0294-9-9-9h-54c-4.9706,0-9-4.0294-9-9h0c0-4.9706,4.0294-9,9-9h54c4.9706,0,9-4.0294,9-9Z"/><path class="cls-13" d="m467.0526,71.0526V26.0526c0-4.9706-4.0294-9-9-9h-126c-4.9706,0-9,4.0294-9,9v126c0,4.9706,4.0294,9,9,9h54c4.9706,0,9,4.0294,9,9v72c0,4.9706-4.0294,9-9,9H98.0526c-4.9706,0-9,4.0294-9,9v54c0,4.9706,4.0294,9,9,9h360c4.9706,0,9-4.0294,9-9V107.0526c0-4.9706-4.0294-9-9-9h-54c-4.9706,0-9-4.0294-9-9h0c0-4.9706,4.0294-9,9-9h54c4.9706,0,9-4.0294,9-9Z"/><path class="cls-39" d="m466.3421,70.3421V25.3421c0-4.9706-4.0294-9-9-9h-126c-4.9706,0-9,4.0294-9,9v126c0,4.9706,4.0294,9,9,9h54c4.9706,0,9,4.0294,9,9v72c0,4.9706-4.0294,9-9,9H97.3421c-4.9706,0-9,4.0294-9,9v54c0,4.9706,4.0294,9,9,9h360c4.9706,0,9-4.0294,9-9V106.3421c0-4.9706-4.0294-9-9-9h-54c-4.9706,0-9-4.0294-9-9h0c0-4.9706,4.0294-9,9-9h54c4.9706,0,9-4.0294,9-9Z"/><path class="cls-93" d="m465.6316,69.6316V24.6316c0-4.9706-4.0294-9-9-9h-126c-4.9706,0-9,4.0294-9,9v126c0,4.9706,4.0294,9,9,9h54c4.9706,0,9,4.0294,9,9v72c0,4.9706-4.0294,9-9,9H96.6316c-4.9706,0-9,4.0294-9,9v54c0,4.9706,4.0294,9,9,9h360c4.9706,0,9-4.0294,9-9V105.6316c0-4.9706-4.0294-9-9-9h-54c-4.9706,0-9-4.0294-9-9h0c0-4.9706,4.0294-9,9-9h54c4.9706,0,9-4.0294,9-9Z"/><path class="cls-17" d="m464.9211,68.9211V23.921c0-4.9706-4.0294-9-9-9h-126c-4.9706,0-9,4.0294-9,9v126c0,4.9706,4.0294,9,9,9h54c4.9706,0,9,4.0294,9,9v72c0,4.9706-4.0294,9-9,9H95.921c-4.9706,0-9,4.0294-9,9v54c0,4.9706,4.0294,9,9,9h360c4.9706,0,9-4.0294,9-9V104.921c0-4.9706-4.0294-9-9-9h-54c-4.9706,0-9-4.0294-9-9h0c0-4.9706,4.0294-9,9-9h54c4.9706,0,9-4.0294,9-9Z"/><path class="cls-71" d="m464.2105,68.2105V23.2105c0-4.9706-4.0294-9-9-9h-126c-4.9706,0-9,4.0294-9,9v126c0,4.9706,4.0294,9,9,9h54c4.9706,0,9,4.0294,9,9v72c0,4.9706-4.0294,9-9,9H95.2105c-4.9706,0-9,4.0294-9,9v54c0,4.9706,4.0294,9,9,9h360c4.9706,0,9-4.0294,9-9V104.2105c0-4.9706-4.0294-9-9-9h-54c-4.9706,0-9-4.0294-9-9h0c0-4.9706,4.0294-9,9-9h54c4.9706,0,9-4.0294,9-9Z"/><path class="cls-106" d="m463.5,67.5V22.5c0-4.9706-4.0294-9-9-9h-126c-4.9706,0-9,4.0294-9,9v126c0,4.9706,4.0294,9,9,9h54c4.9706,0,9,4.0294,9,9v72c0,4.9706-4.0294,9-9,9H94.5c-4.9706,0-9,4.0294-9,9v54c0,4.9706,4.0294,9,9,9h360c4.9706,0,9-4.0294,9-9V103.5c0-4.9706-4.0294-9-9-9h-54c-4.9706,0-9-4.0294-9-9h0c0-4.9706,4.0294-9,9-9h54c4.9706,0,9-4.0294,9-9Z"/><path class="cls-91" d="m462.7895,66.7895V21.7895c0-4.9706-4.0294-9-9-9h-126c-4.9706,0-9,4.0294-9,9v126c0,4.9706,4.0294,9,9,9h54c4.9706,0,9,4.0294,9,9v72c0,4.9706-4.0294,9-9,9H93.7895c-4.9706,0-9,4.0294-9,9v54c0,4.9706,4.0294,9,9,9h360c4.9706,0,9-4.0294,9-9V102.7895c0-4.9706-4.0294-9-9-9h-54c-4.9706,0-9-4.0294-9-9h0c0-4.9706,4.0294-9,9-9h54c4.9706,0,9-4.0294,9-9Z"/><path class="cls-116" d="m462.0789,66.079V21.0789c0-4.9706-4.0294-9-9-9h-126c-4.9706,0-9,4.0294-9,9v126c0,4.9706,4.0294,9,9,9h54c4.9706,0,9,4.0294,9,9v72c0,4.9706-4.0294,9-9,9H93.0789c-4.9706,0-9,4.0294-9,9v54c0,4.9706,4.0294,9,9,9h360c4.9706,0,9-4.0294,9-9V102.0789c0-4.9706-4.0294-9-9-9h-54c-4.9706,0-9-4.0294-9-9h0c0-4.9706,4.0294-9,9-9h54c4.9706,0,9-4.0294,9-9Z"/><path class="cls-56" d="m461.3684,65.3684V20.3684c0-4.9706-4.0294-9-9-9h-126c-4.9706,0-9,4.0294-9,9v126c0,4.9706,4.0294,9,9,9h54c4.9706,0,9,4.0294,9,9v72c0,4.9706-4.0294,9-9,9H92.3684c-4.9706,0-9,4.0294-9,9v54c0,4.9706,4.0294,9,9,9h360c4.9706,0,9-4.0294,9-9V101.3684c0-4.9706-4.0294-9-9-9h-54c-4.9706,0-9-4.0294-9-9h0c0-4.9706,4.0294-9,9-9h54c4.9706,0,9-4.0294,9-9Z"/><path class="cls-54" d="m460.6579,64.6579V19.6579c0-4.9706-4.0294-9-9-9h-126c-4.9706,0-9,4.0294-9,9v126c0,4.9706,4.0294,9,9,9h54c4.9706,0,9,4.0294,9,9v72c0,4.9706-4.0294,9-9,9H91.6579c-4.9706,0-9,4.0294-9,9v54c0,4.9706,4.0294,9,9,9h360c4.9706,0,9-4.0294,9-9V100.6579c0-4.9706-4.0294-9-9-9h-54c-4.9706,0-9-4.0294-9-9h0c0-4.9706,4.0294-9,9-9h54c4.9706,0,9-4.0294,9-9Z"/><path class="cls-16" d="m459.9474,63.9474V18.9474c0-4.9706-4.0294-9-9-9h-126c-4.9706,0-9,4.0294-9,9v126c0,4.9706,4.0294,9,9,9h54c4.9706,0,9,4.0294,9,9v72c0,4.9706-4.0294,9-9,9H90.9474c-4.9706,0-9,4.0294-9,9v54c0,4.9706,4.0294,9,9,9h360c4.9706,0,9-4.0294,9-9V99.9474c0-4.9706-4.0294-9-9-9h-54c-4.9706,0-9-4.0294-9-9h0c0-4.9706,4.0294-9,9-9h54c4.9706,0,9-4.0294,9-9Z"/><path class="cls-52" d="m459.2368,63.2369V18.2368c0-4.9706-4.0294-9-9-9h-126c-4.9706,0-9,4.0294-9,9v126c0,4.9706,4.0294,9,9,9h54c4.9706,0,9,4.0294,9,9v72c0,4.9706-4.0294,9-9,9H90.2368c-4.9706,0-9,4.0294-9,9v54c0,4.9706,4.0294,9,9,9h360c4.9706,0,9-4.0294,9-9V99.2368c0-4.9706-4.0294-9-9-9h-54c-4.9706,0-9-4.0294-9-9h0c0-4.9706,4.0294-9,9-9h54c4.9706,0,9-4.0294,9-9Z"/><path class="cls-25" d="m458.5263,62.5263V17.5263c0-4.9706-4.0294-9-9-9h-126c-4.9706,0-9,4.0294-9,9v126c0,4.9706,4.0294,9,9,9h54c4.9706,0,9,4.0294,9,9v72c0,4.9706-4.0294,9-9,9H89.5263c-4.9706,0-9,4.0294-9,9v54c0,4.9706,4.0294,9,9,9h360c4.9706,0,9-4.0294,9-9V98.5263c0-4.9706-4.0294-9-9-9h-54c-4.9706,0-9-4.0294-9-9h0c0-4.9706,4.0294-9,9-9h54c4.9706,0,9-4.0294,9-9Z"/><path class="cls-79" d="m457.8158,61.8158V16.8158c0-4.9706-4.0294-9-9-9h-126c-4.9706,0-9,4.0294-9,9v126c0,4.9706,4.0294,9,9,9h54c4.9706,0,9,4.0294,9,9v72c0,4.9706-4.0294,9-9,9H88.8158c-4.9706,0-9,4.0294-9,9v54c0,4.9706,4.0294,9,9,9h360c4.9706,0,9-4.0294,9-9V97.8158c0-4.9706-4.0294-9-9-9h-54c-4.9706,0-9-4.0294-9-9h0c0-4.9706,4.0294-9,9-9h54c4.9706,0,9-4.0294,9-9Z"/><path class="cls-30" d="m457.1053,61.1053V16.1053c0-4.9706-4.0294-9-9-9h-126c-4.9706,0-9,4.0294-9,9v126c0,4.9706,4.0294,9,9,9h54c4.9706,0,9,4.0294,9,9v72c0,4.9706-4.0294,9-9,9H88.1053c-4.9706,0-9,4.0294-9,9v54c0,4.9706,4.0294,9,9,9h360c4.9706,0,9-4.0294,9-9V97.1053c0-4.9706-4.0294-9-9-9h-54c-4.9706,0-9-4.0294-9-9h0c0-4.9706,4.0294-9,9-9h54c4.9706,0,9-4.0294,9-9Z"/><path class="cls-2" d="m456.3947,60.3947V15.3947c0-4.9706-4.0294-9-9-9h-126c-4.9706,0-9,4.0294-9,9v126c0,4.9706,4.0294,9,9,9h54c4.9706,0,9,4.0294,9,9v72c0,4.9706-4.0294,9-9,9H87.3947c-4.9706,0-9,4.0294-9,9v54c0,4.9706,4.0294,9,9,9h360c4.9706,0,9-4.0294,9-9V96.3947c0-4.9706-4.0294-9-9-9h-54c-4.9706,0-9-4.0294-9-9h0c0-4.9706,4.0294-9,9-9h54c4.9706,0,9-4.0294,9-9Z"/><path class="cls-105" d="m455.6842,59.6842V14.6842c0-4.9706-4.0294-9-9-9h-126c-4.9706,0-9,4.0294-9,9v126c0,4.9706,4.0294,9,9,9h54c4.9706,0,9,4.0294,9,9v72c0,4.9706-4.0294,9-9,9H86.6842c-4.9706,0-9,4.0294-9,9v54c0,4.9706,4.0294,9,9,9h360c4.9706,0,9-4.0294,9-9V95.6842c0-4.9706-4.0294-9-9-9h-54c-4.9706,0-9-4.0294-9-9h0c0-4.9706,4.0294-9,9-9h54c4.9706,0,9-4.0294,9-9Z"/><path class="cls-37" d="m454.9737,58.9737V13.9737c0-4.9706-4.0294-9-9-9h-126c-4.9706,0-9,4.0294-9,9v126c0,4.9706,4.0294,9,9,9h54c4.9706,0,9,4.0294,9,9v72c0,4.9706-4.0294,9-9,9H85.9737c-4.9706,0-9,4.0294-9,9v54c0,4.9706,4.0294,9,9,9h360c4.9706,0,9-4.0294,9-9V94.9737c0-4.9706-4.0294-9-9-9h-54c-4.9706,0-9-4.0294-9-9h0c0-4.9706,4.0294-9,9-9h54c4.9706,0,9-4.0294,9-9Z"/><path class="cls-9" d="m454.2632,58.2632V13.2631c0-4.9706-4.0294-9-9-9h-126c-4.9706,0-9,4.0294-9,9v126c0,4.9706,4.0294,9,9,9h54c4.9706,0,9,4.0294,9,9v72c0,4.9706-4.0294,9-9,9H85.2631c-4.9706,0-9,4.0294-9,9v54c0,4.9706,4.0294,9,9,9h360c4.9706,0,9-4.0294,9-9V94.2631c0-4.9706-4.0294-9-9-9h-54c-4.9706,0-9-4.0294-9-9h0c0-4.9706,4.0294-9,9-9h54c4.9706,0,9-4.0294,9-9Z"/><path class="cls-29" d="m453.5526,57.5526V12.5526c0-4.9706-4.0294-9-9-9h-126c-4.9706,0-9,4.0294-9,9v126c0,4.9706,4.0294,9,9,9h54c4.9706,0,9,4.0294,9,9v72c0,4.9706-4.0294,9-9,9H84.5526c-4.9706,0-9,4.0294-9,9v54c0,4.9706,4.0294,9,9,9h360c4.9706,0,9-4.0294,9-9V93.5526c0-4.9706-4.0294-9-9-9h-54c-4.9706,0-9-4.0294-9-9h0c0-4.9706,4.0294-9,9-9h54c4.9706,0,9-4.0294,9-9Z"/><path class="cls-61" d="m452.8421,56.8421V11.8421c0-4.9706-4.0294-9-9-9h-126c-4.9706,0-9,4.0294-9,9v126c0,4.9706,4.0294,9,9,9h54c4.9706,0,9,4.0294,9,9v72c0,4.9706-4.0294,9-9,9H83.8421c-4.9706,0-9,4.0294-9,9v54c0,4.9706,4.0294,9,9,9h360c4.9706,0,9-4.0294,9-9V92.8421c0-4.9706-4.0294-9-9-9h-54c-4.9706,0-9-4.0294-9-9h0c0-4.9706,4.0294-9,9-9h54c4.9706,0,9-4.0294,9-9Z"/><path class="cls-7" d="m452.1316,56.1316V11.1316c0-4.9706-4.0294-9-9-9h-126c-4.9706,0-9,4.0294-9,9v126c0,4.9706,4.0294,9,9,9h54c4.9706,0,9,4.0294,9,9v72c0,4.9706-4.0294,9-9,9H83.1316c-4.9706,0-9,4.0294-9,9v54c0,4.9706,4.0294,9,9,9h360c4.9706,0,9-4.0294,9-9V92.1316c0-4.9706-4.0294-9-9-9h-54c-4.9706,0-9-4.0294-9-9h0c0-4.9706,4.0294-9,9-9h54c4.9706,0,9-4.0294,9-9Z"/><path class="cls-86" d="m451.4211,55.4211V10.421c0-4.9706-4.0294-9-9-9h-126c-4.9706,0-9,4.0294-9,9v126c0,4.9706,4.0294,9,9,9h54c4.9706,0,9,4.0294,9,9v72c0,4.9706-4.0294,9-9,9H82.421c-4.9706,0-9,4.0294-9,9v54c0,4.9706,4.0294,9,9,9h360c4.9706,0,9-4.0294,9-9V91.421c0-4.9706-4.0294-9-9-9h-54c-4.9706,0-9-4.0294-9-9h0c0-4.9706,4.0294-9,9-9h54c4.9706,0,9-4.0294,9-9Z"/><path class="cls-88" d="m450.7105,54.7105V9.7105c0-4.9706-4.0294-9-9-9h-126c-4.9706,0-9,4.0294-9,9v126c0,4.9706,4.0294,9,9,9h54c4.9706,0,9,4.0294,9,9v72c0,4.9706-4.0294,9-9,9H81.7105c-4.9706,0-9,4.0294-9,9v54c0,4.9706,4.0294,9,9,9h360c4.9706,0,9-4.0294,9-9V90.7105c0-4.9706-4.0294-9-9-9h-54c-4.9706,0-9-4.0294-9-9h0c0-4.9706,4.0294-9,9-9h54c4.9706,0,9-4.0294,9-9Z"/><path class="cls-100" d="m450,54V9c0-4.9706-4.0294-9-9-9h-126c-4.9706,0-9,4.0294-9,9v126c0,4.9706,4.0294,9,9,9h54c4.9706,0,9,4.0294,9,9v72c0,4.9706-4.0294,9-9,9H81c-4.9706,0-9,4.0294-9,9v54c0,4.9706,4.0294,9,9,9h360c4.9706,0,9-4.0294,9-9V90c0-4.9706-4.0294-9-9-9h-54c-4.9706,0-9-4.0294-9-9h0c0-4.9706,4.0294-9,9-9h54c4.9706,0,9-4.0294,9-9Z"/><path class="cls-62" d="m450,54V9c0-4.9706-4.0294-9-9-9h-126c-4.9706,0-9,4.0294-9,9v126c0,4.9706,4.0294,9,9,9h54c4.9706,0,9,4.0294,9,9v72c0,4.9706-4.0294,9-9,9H81c-4.9706,0-9,4.0294-9,9v54c0,4.9706,4.0294,9,9,9h360c4.9706,0,9-4.0294,9-9V90c0-4.9706-4.0294-9-9-9h-54c-4.9706,0-9-4.0294-9-9h0c0-4.9706,4.0294-9,9-9h54c4.9706,0,9-4.0294,9-9Z"/><path class="cls-62" d="m225,9v135c0,4.9706-4.0294,9-9,9h-54c-4.9706,0-9,4.0294-9,9v54c0,4.9706,4.0294,9,9,9h126c4.9706,0,9-4.0294,9-9V9c0-4.9706-4.0294-9-9-9h-54c-4.9706,0-9,4.0294-9,9Z"/><path class="cls-62" d="m216,9c0-4.9706-4.0294-9-9-9H9C4.0294,0,0,4.0294,0,9v45c0,4.9706,4.0294,9,9,9h54c4.9706,0,9,4.0294,9,9v144c0,4.9706,4.0294,9,9,9h54c4.9706,0,9-4.0294,9-9V72c0-4.9706,4.0294-9,9-9h54c4.9706,0,9-4.0294,9-9V9Z"/><path class="cls-31" d="m84.1023,297.0005v-50.7129h29.0508c6.416,0,9.6592,3.0693,9.6592,9.2754v32.5625c0,5.9385-3.2432,8.875-9.6592,8.875h-29.0508Zm26.5117-35.9658c0-1.335-.7051-2.002-2.1152-2.002h-12.1982v25.2227h12.1982c1.4102,0,2.1152-.667,2.1152-2.002v-21.2188Z"/><path class="cls-31" d="m131.2019,297.0005v-50.7129h33.4922v12.5449h-21.2236v7.207h18.333v10.7422h-18.333v7.4736h21.3652v12.7451h-33.6338Z"/><path class="cls-31" d="m172.0261,297.0005v-12.7451h24.0439c1.4102,0,2.1152-.667,2.1152-2.002v-3.3359c0-1.335-.7051-2.002-2.1152-2.002h-14.2432c-6.5576,0-9.8711-2.9355-9.8711-8.875v-12.0771c0-6.4727,3.1729-9.6758,9.5186-9.6758h27.6406v12.7451h-22.8457c-1.4102,0-2.1152.667-2.1152,2.002v3.2695c0,1.335.7051,2.002,2.1152,2.002h14.666c6.2754,0,9.3779,3.0029,9.3779,8.9414v11.877c0,6.6064-3.3838,9.876-10.2236,9.876h-28.0635Z"/><path class="cls-31" d="m218.7019,297.0005v-50.7129h12.1982v50.7129h-12.1982Z"/><path class="cls-31" d="m248.9499,297.0005c-6.417,0-9.6602-2.9365-9.6602-8.875v-32.5625c0-6.2061,3.2432-9.2754,9.6602-9.2754h26.7939v12.7451h-22.1406c-1.4102,0-2.1152.667-2.1152,2.002v21.2188c0,1.335.7051,2.002,2.1152,2.002h10.7178v-7.6064h-6.8389v-10.543h18.6846v30.8945h-27.2168Z"/><path class="cls-31" d="m315.0876,297.0005l-18.5449-26.8242v26.8242h-12.1982v-50.7129h11.7051l17.0635,26.4912v-26.4912h12.1982v50.7129h-10.2236Z"/><path class="cls-31" d="m333.7009,297.0005v-12.7451h24.0439c1.4102,0,2.1152-.667,2.1152-2.002v-3.3359c0-1.335-.7051-2.002-2.1152-2.002h-14.2432c-6.5576,0-9.8711-2.9355-9.8711-8.875v-12.0771c0-6.4727,3.1729-9.6758,9.5186-9.6758h27.6406v12.7451h-22.8457c-1.4102,0-2.1152.667-2.1152,2.002v3.2695c0,1.335.7051,2.002,2.1152,2.002h14.666c6.2754,0,9.3779,3.0029,9.3779,8.9414v11.877c0,6.6064-3.3838,9.876-10.2236,9.876h-28.0635Z"/></svg>