<?xml version="1.0" encoding="UTF-8"?><svg id="Layer_1" xmlns="http://www.w3.org/2000/svg" width="1028.3401" height="1056.7572" xmlns:xlink="http://www.w3.org/1999/xlink" viewBox="0 0 1028.3401 1056.7572"><defs><style>.cls-1{fill:url(#TJS_Gradient);stroke-width:0px;}.cls-2{fill:#fff;stroke:#fff;stroke-miterlimit:10;stroke-width:2px;}</style><linearGradient id="TJS_Gradient" x1="214.6168" y1="97.3124" x2="990.9374" y2="818.2911" gradientUnits="userSpaceOnUse"><stop offset=".1564" stop-color="#10ffd7"/><stop offset=".1739" stop-color="#19f7da"/><stop offset=".268" stop-color="#47d0ea"/><stop offset=".3516" stop-color="#68b5f5"/><stop offset=".421" stop-color="#7ca4fc"/><stop offset=".4675" stop-color="#849eff"/><stop offset=".5735" stop-color="#5d96ff"/><stop offset=".7971" stop-color="#0383ff"/></linearGradient></defs><path class="cls-1" d="m1028.3401,220.5689v73.9264c0,27.5054-22.2975,49.8029-49.8029,49.8029h-242.8801c-27.5054,0-49.8029,22.2975-49.8029,49.8029v446.5716c0,13.1617-5.21,25.7883-14.4914,35.1202l-121.1051,121.7647c-19.4156,19.5213-50.9871,19.5849-70.4812.142l-295.2834-294.5083c-9.3682-9.3436-14.6332-22.031-14.6332-35.2622V220.5689c0-27.5054-22.2975-49.8029-49.8029-49.8029H49.8029c-27.5054,0-49.8029-22.2975-49.8029-49.8029V49.8029C0,22.2975,22.2975,0,49.8029,0h515.8164c44.3697,0,66.5901,53.6448,35.216,85.0189l-71.1602,71.1602c-9.3399,9.3399-22.0074,14.5869-35.216,14.5869h-99.4517c-27.5054,0-49.8029,22.2975-49.8029,49.8029v447.6318c0,13.0704,5.1382,25.617,14.3061,34.9329l70.2778,71.4123c31.2569,31.7615,85.2997,9.6293,85.2997-34.9329v-374.9197c0-13.07,5.1378-25.6161,14.3051-34.9319l141.8269-144.1244c9.3618-9.5135,22.1505-14.871,35.4978-14.871h271.8192c27.5054,0,49.8029,22.2975,49.8029,49.8029Z"/><path class="cls-2" d="m188.1227,714.9524c3.6352,3.6352,6.3599,7.7269,8.1763,12.275s2.72,9.1963,2.7177,13.947c-.0058,4.753-.9071,9.4152-2.7049,13.989-1.7978,4.5784-4.5178,8.6863-8.1612,12.3285-3.641,3.6422-7.7502,6.3622-12.3262,8.16s-9.2394,2.7014-13.989,2.7037c-4.7519.0023-9.4001-.9012-13.9482-2.7177s-8.6386-4.5411-12.2738-8.1763l-16.5879-16.5879c-.354-.354-.3796-.6823-.0757-.9874l51.523-51.5219c.3528-.354.7079-.354,1.0619,0l16.5879,16.5879Zm-43.2989,43.3572c2.3264,2.3264,4.9696,4.0847,7.9295,5.2747,2.9587,1.1877,6.0071,1.7838,9.1439,1.7838,3.1357-.0023,6.1713-.5822,9.1044-1.7466,2.9354-1.1644,5.5902-2.9343,7.9679-5.3096,2.3276-2.3288,4.0847-4.9696,5.2735-7.9318,1.1888-2.9575,1.7827-6.0082,1.7838-9.1428-.0012-3.1345-.595-6.1852-1.7827-9.1428-1.19-2.9622-2.9482-5.603-5.2747-7.9318l-7.9667-7.9644-34.1457,34.1445,7.9667,7.9667Z"/><path class="cls-2" d="m258.7196,786.3084l-.6066.6055-1.2145,1.2156-6.3739,6.3739c-.3551.3563-.7091.3516-1.0619,0l-28.6824-28.6835-12.9759,12.9759,25.0402,25.0413c.3027.3027.3039.6078,0,.9106l-8.195,8.195c-.3551.3563-.6835.3796-.9862.0768l-25.0402-25.0413-12.0654,12.0654,28.6824,28.6812c.3528.354.3551.7079.0047,1.0573l-8.1239,8.1251c-.354.354-.7091.3516-1.0619,0l-28.6824-28.6835-8.6502-8.6491c-.3551-.354-.354-.7079,0-1.0619l8.7271-8.7283,34.1457-34.1445,8.7259-8.7259c.3039-.3051.6311-.2795.9862.0768l8.6502,8.6491,28.6824,28.6812c.3528.354.3796.6847.0757.9874Z"/><path class="cls-2" d="m306.5224,834.2626l-8.1961,8.1973c-.3027.3027-.6323.2748-.9851-.0792l-23.6743-23.6743c-1.771-1.7699-3.9228-2.6548-6.4495-2.6548-2.5314,0-4.6808.8849-6.4519,2.6548-1.771,1.7722-2.6571,3.9217-2.6548,6.4507-.0012,2.5291.8849,4.6808,2.656,6.4507l8.9541,8.9541c2.1238,2.1238,3.7039,4.5155,4.7426,7.1703,1.0363,2.6548,1.5556,5.3515,1.5556,8.0809-.0012,2.7317-.5193,5.4261-1.5568,8.0809s-2.6175,5.0465-4.7426,7.1726c-2.1238,2.1238-4.5155,3.7028-7.1703,4.7414-2.6571,1.0386-5.3492,1.5556-8.0809,1.5556s-5.4261-.517-8.0809-1.5556c-2.6571-1.0386-5.0465-2.6175-7.1703-4.7414l-24.1296-24.1308c-.3039-.3027-.2795-.6334.0745-.9874l8.1193-8.1181c.3528-.354.6835-.3796.9874-.0745l4.6284,4.6273,19.5012,19.5012c1.6686,1.6697,3.6923,2.5034,6.07,2.5034s4.4014-.8337,6.07-2.5034c1.6697-1.6697,2.5034-3.6934,2.5046-6.0711,0-2.3754-.8349-4.4014-2.5034-6.0688l-8.9541-8.9565c-2.1751-2.1751-3.8076-4.6156-4.8939-7.3217-1.0887-2.706-1.6336-5.4773-1.6313-8.3091-.0012-2.8318.5426-5.603,1.6301-8.3091s2.7188-5.1466,4.8939-7.3217,4.6168-3.8052,7.3228-4.8951c2.706-1.0852,5.475-1.6301,8.3091-1.6301,2.8318,0,5.603.5449,8.3091,1.6301,2.7049,1.0899,5.1478,2.72,7.3228,4.8951l23.6743,23.6743c.3528.354.3528.7079,0,1.0619Z"/><path class="cls-2" d="m323.5958,851.1835l-51.523,51.5242c-.4052.4052-.7836.4308-1.1376.0768l-8.1193-8.1204c-.354-.354-.3295-.7336.0757-1.1388l51.523-51.5219c.3039-.3027.6323-.2795.9862.0745l8.1193,8.1204c.354.354.3796.6823.0757.9851Z"/><path class="cls-2" d="m359.714,932.8304l-13.3555,13.3555-3.5665,3.5654c-.1025.1025-.2538.1537-.4553.1514-4.1464.3097-8.1507.2725-12.0177-.1048-3.8681-.3773-7.7723-1.4718-11.7126-3.2882-2.628-1.211-5.0278-2.5756-7.2006-4.0893-2.1716-1.5137-4.243-3.3092-6.2132-5.3795-.3039-.3027-.6066-.6055-.9094-.9082-.3039-.3051-.581-.6311-.8325-.9851-.5577-.659-1.0992-1.3274-1.629-2.0097-.5321-.6823-.9979-1.3763-1.4019-2.0819-2.2217-3.5351-3.7982-7.2891-4.7309-11.2573-.9315-3.9682-1.2191-7.9458-.8616-11.942.3551-3.9915,1.3332-7.848,2.9284-11.5647,1.594-3.7167,3.8076-7.14,6.6417-10.2792,2.7817-3.0856,5.9803-5.603,9.5981-7.5499,3.6166-1.9469,7.3846-3.2626,11.3062-3.9449,3.9193-.6847,7.8899-.7336,11.9129-.1537,4.0206.5822,7.9039,1.8351,11.6474,3.7563,3.7447,1.9236,7.0189,4.3641,9.8274,7.324,2.8073,2.9575,5.0581,6.2225,6.7535,9.7878,1.6919,3.5654,2.7806,7.3869,3.2626,11.4576.4797,4.073.2888,8.1577-.5694,12.2564v.3027c-.2026.503-.531.68-.9862.531l-11.0035-3.4163c-.4553-.1514-.6334-.4285-.531-.8337.5053-2.6292.5542-5.2351.1514-7.8154-.4052-2.5803-1.176-5.0208-2.3136-7.324-1.1388-2.3008-2.6059-4.3734-4.4002-6.2202-1.7967-1.8467-3.9077-3.3767-6.3366-4.5923-2.4289-1.2133-4.9207-2.0097-7.4742-2.387-2.557-.3819-5.0977-.3447-7.6256.1118-2.5302.4564-4.9452,1.3041-7.246,2.543-2.3032,1.2389-4.3641,2.8178-6.1864,4.7414-1.8712,1.9748-3.3383,4.1499-4.3991,6.5252-1.0643,2.3777-1.721,4.8322-1.9736,7.3589-.2538,2.5337-.1141,5.0721.4169,7.6291.531,2.5523,1.4543,4.9952,2.7701,7.3217,1.2156,2.1238,2.8073,4.0707,4.781,5.8429,1.9713,1.7675,4.1091,3.2766,6.4111,4.5155s4.753,2.1495,7.3601,2.7293c2.6059.5822,5.1466.7452,7.6256.4937l.4553-.4564,4.25-4.2477-11.3062-11.3085c-.354-.354-.3551-.7056,0-1.0619l8.1193-8.1181c.3528-.354.7079-.354,1.0619,0l19.9565,19.9576c.354.354.354.7079.0012,1.0619Z"/><path class="cls-2" d="m436.5019,964.241l-49.0196,49.0208-2.5791,2.5803c-.3039.3027-.6334.2748-.9862-.0768l-8.4232-8.4232-.2271-.2282-.0012-.3027,8.9541-65.4084-36.8773,36.8762c-.3039.3051-.6323.2795-.9862-.0745l-8.195-8.195c-.3027-.3027-.3027-.6055.0012-.9106l51.5987-51.5964c.3528-.354.6823-.3819.9851-.0792l8.4232,8.4255c.1013.1001.149.177.1514.2282-.0012.0489.0256.0978.0757.149v.3051l-8.9541,65.4084,36.8785-36.8785c.3528-.354.7068-.354,1.0619,0l8.1193,8.1181c.3528.354.3528.7103,0,1.0619Z"/><path class="cls-2" d="m484.9148,1012.6562l-8.1961,8.195c-.3027.3027-.6323.2771-.9851-.0768l-23.6743-23.6743c-1.771-1.7699-3.9228-2.6548-6.4507-2.6571-2.5302.0023-4.6797.8873-6.4507,2.6571s-2.6571,3.9217-2.656,6.4507c0,2.5291.8861,4.6785,2.6571,6.4507l8.953,8.9518c2.125,2.1238,3.7051,4.5155,4.7437,7.1703,1.0363,2.6571,1.5545,5.3492,1.5545,8.0832,0,2.7293-.5182,5.4237-1.5556,8.0809-1.0375,2.6548-2.6175,5.0441-4.7426,7.1703-2.1238,2.1238-4.5155,3.7051-7.1703,4.7414-2.6571,1.0386-5.3492,1.5556-8.082,1.558-2.7305-.0023-5.4249-.5193-8.0797-1.558-2.6571-1.0363-5.0465-2.6175-7.1715-4.7437l-24.1296-24.1285c-.3039-.3051-.2783-.6311.0757-.9851l8.1193-8.1204c.3528-.3516.6823-.3796.9862-.0768l4.6296,4.6296,19.5,19.5012c1.6697,1.6697,3.6923,2.5058,6.07,2.5058s4.4026-.836,6.0711-2.5058c1.6697-1.6674,2.5034-3.6934,2.5034-6.0688,0-2.38-.8337-4.4014-2.5034-6.0734l-8.953-8.9518c-2.1762-2.1751-3.8076-4.6156-4.8939-7.3217-1.0899-2.706-1.6336-5.4773-1.6325-8.3091,0-2.8318.5438-5.603,1.6313-8.3091,1.0864-2.706,2.7188-5.1466,4.8939-7.3217s4.6156-3.8099,7.3228-4.8951c2.706-1.0875,5.475-1.6301,8.3079-1.6301,2.833-.0023,5.603.5403,8.3102,1.6301,2.7049,1.0899,5.1466,2.7177,7.3228,4.8951l23.6743,23.6743c.3528.3516.3528.7079,0,1.0619Z"/></svg>