<svg xmlns="http://www.w3.org/2000/svg" viewBox="0 143.75 416.53 196.95"><defs><style>.cls-1{stroke-width:0px;}</style><style class="darkreader darkreader--sync" media="screen"/></defs><g id="S"><path class="cls-1" d="m366.1847,143.75h-50c-27.6143,0-50,22.3857-50,50s25.3932,50.2659,62.9251,50.2659v-50l37.0749-.2659h50.3472c0-27.6143-22.733-50-50.3472-50Z"/></g><g id="Layer_1"><path class="cls-1" d="m255.383,263.6915h-22.4042v-119.7021h-50v124.2978h72.4042c1.2691,0,2.2979-1.0287,2.2979-2.2979s-1.0287-2.2979-2.2979-2.2979Z"/><path class="cls-1" d="m255.8936,286.0851h-122.4042v4.5958c0,27.6142,22.3857,50,50,50s50-22.3858,50-50h22.4042c1.2691,0,2.2979-1.0288,2.2979-2.2979s-1.0287-2.2979-2.2979-2.2979Z"/><path class="cls-1" d="m0,144.5v50h50l-.383,68.2021h-22.4043c-1.269,0-2.2979,1.0287-2.2979,2.2979s1.0288,2.2979,2.2979,2.2979h72.4043v-4.5957l.383-68.2021h50v-50H0Z"/><path class="cls-1" d="m121.383,286.0851H48.9787v54.5958h50v-50h22.4042c1.2691,0,2.2979-1.0288,2.2979-2.2979s-1.0287-2.2979-2.2979-2.2979Z"/><path class="cls-1" d="m356.5531,240v-16.4362c0-1.269-1.0287-2.2979-2.2979-2.2979s-2.2979,1.0288-2.2979,2.2979v61.8405h-85.7728v4.5958c0,27.6142,22.733,50,50.3472,50h50c27.6143,0,50-22.3858,50-50s-20.4042-50-59.9788-50Z"/></g></svg>