<?xml version="1.0" encoding="UTF-8"?><svg id="Layer_1" xmlns="http://www.w3.org/2000/svg" width="863.4873" height="565.38" xmlns:xlink="http://www.w3.org/1999/xlink" viewBox="0 0 863.4873 565.38"><defs><style>.cls-1{fill:none;}.cls-1,.cls-2,.cls-3,.cls-4{stroke-width:0px;}.cls-2{fill:url(#linear-gradient);opacity:.9;}.cls-3{fill:url(#linear-gradient-3);}.cls-3,.cls-4{opacity:.68;}.cls-4{fill:url(#linear-gradient-2);}</style><linearGradient id="linear-gradient" x1="431.7436" y1="593.4798" x2="431.7436" y2="-27.5422" gradientUnits="userSpaceOnUse"><stop offset=".1823" stop-color="#10ffd7"/><stop offset=".2005" stop-color="#19f7da"/><stop offset=".2985" stop-color="#47d0ea"/><stop offset=".3856" stop-color="#68b5f5"/><stop offset=".4579" stop-color="#7ca4fc"/><stop offset=".5063" stop-color="#849eff"/><stop offset=".6236" stop-color="#5d96ff"/><stop offset=".8709" stop-color="#0383ff"/></linearGradient><linearGradient id="linear-gradient-2" x1="88.6237" y1="466.3429" x2="464.5418" y2="466.3429" gradientTransform="translate(945.7346 611) rotate(-180)" xlink:href="#linear-gradient"/><linearGradient id="linear-gradient-3" x1="569.8164" y1="190.2771" x2="945.7346" y2="190.2771" gradientTransform="translate(945.7346 611) rotate(-180)" xlink:href="#linear-gradient"/></defs><polygon class="cls-1" points="101.7067 7.0723 88.0453 30.7344 115.3681 30.7344 101.7067 7.0723"/><polygon class="cls-1" points="749.9911 559.3515 763.6525 535.6893 736.3297 535.6893 749.9911 559.3515"/><polygon class="cls-1" points="838.1999 405.0441 851.8613 381.3819 824.5386 381.3819 838.1999 405.0441"/><polygon class="cls-1" points="0 183.2333 27.3228 183.2333 13.6614 159.5712 0 183.2333"/><path class="cls-2" d="m861.8162,377.5084L588.254,3.5479c-1.6312-2.2299-4.2284-3.5479-6.9913-3.5479H108.4967c-3.1038,0-5.9703,1.6606-7.5143,4.3531L1.1478,178.4482c-1.7024,2.9688-1.4973,6.6615.5232,9.4235l273.5721,373.9604c1.6313,2.2299,4.2283,3.5478,6.9911,3.5478h472.7659c3.1039,0,5.9706-1.6608,7.5145-4.3535l99.8248-174.0951c1.7023-2.9686,1.4972-6.6611-.5233-9.423Zm-65.1659-8.4512l-82.7079,144.2432c-1.2792,2.2309-3.6543,3.6069-6.226,3.6069h-407.9907c-2.2891,0-4.4408-1.092-5.7924-2.9395L67.2705,204.1302c-1.6741-2.2885-1.8439-5.348-.4335-7.8077L149.5529,52.0793c1.2792-2.2308,3.6543-3.6067,6.2259-3.6067h407.9908c2.2891,0,4.4409,1.092,5.7924,2.9395l226.6548,309.8378c1.674,2.2883,1.8439,5.3477.4335,7.8073ZM108.083,7.0723l13.6614,23.6622h-27.3228l13.6614-23.6622ZM6.3764,183.2333l13.6614-23.6622,13.6614,23.6622H6.3764Zm749.9911,376.1182l-13.6614-23.6622h27.3228l-13.6614,23.6622Zm88.2088-154.3074l-13.6613-23.6622h27.3226l-13.6614,23.6622Z"/><polygon class="cls-4" points="857.1109 289.3143 697.2268 289.3143 481.1928 0 643.932 0 857.1109 289.3143"/><polygon class="cls-3" points="375.9182 565.38 216.034 565.38 0 276.0657 162.7393 276.0657 375.9182 565.38"/></svg>