<?xml version="1.0" encoding="UTF-8"?><svg id="Layer_1" xmlns="http://www.w3.org/2000/svg" width="857.1109" height="565.38" xmlns:xlink="http://www.w3.org/1999/xlink" viewBox="0 0 857.1109 565.38"><defs><style>.cls-1{fill:url(#linear-gradient);}.cls-1,.cls-2,.cls-3{stroke-width:0px;}.cls-1,.cls-3{opacity:.68;}.cls-2{fill:none;}.cls-3{fill:url(#linear-gradient-2);}</style><linearGradient id="linear-gradient" x1="88.6237" y1="466.3429" x2="464.5418" y2="466.3429" gradientTransform="translate(945.7346 611) rotate(-180)" gradientUnits="userSpaceOnUse"><stop offset=".1823" stop-color="#10ffd7"/><stop offset=".2005" stop-color="#19f7da"/><stop offset=".2985" stop-color="#47d0ea"/><stop offset=".3856" stop-color="#68b5f5"/><stop offset=".4579" stop-color="#7ca4fc"/><stop offset=".5063" stop-color="#849eff"/><stop offset=".6236" stop-color="#5d96ff"/><stop offset=".8709" stop-color="#0383ff"/></linearGradient><linearGradient id="linear-gradient-2" x1="569.8164" y1="190.2771" x2="945.7346" y2="190.2771" xlink:href="#linear-gradient"/></defs><polygon class="cls-2" points="101.7067 7.0723 88.0453 30.7344 115.368 30.7344 101.7067 7.0723"/><polygon class="cls-2" points="749.9911 559.3515 763.6525 535.6893 736.3297 535.6893 749.9911 559.3515"/><polygon class="cls-2" points="838.1999 405.0441 851.8613 381.3819 824.5386 381.3819 838.1999 405.0441"/><polygon class="cls-2" points="0 183.2333 27.3228 183.2333 13.6614 159.5712 0 183.2333"/><polygon class="cls-1" points="857.1109 289.3143 697.2267 289.3143 481.1928 0 643.932 0 857.1109 289.3143"/><polygon class="cls-3" points="375.9182 565.38 216.034 565.38 0 276.0657 162.7393 276.0657 375.9182 565.38"/></svg>