<?xml version="1.0" encoding="utf-8"?>
<!-- Generator: Adobe Illustrator 28.0.0, SVG Export Plug-In . SVG Version: 6.00 Build 0)  -->
<svg version="1.1" id="Layer_1" xmlns="http://www.w3.org/2000/svg" xmlns:xlink="http://www.w3.org/1999/xlink" x="0px" y="0px"
	 viewBox="0 0 851.9 552.3" style="enable-background:new 0 0 851.9 552.3;" xml:space="preserve">
<style type="text/css">
	.st0{fill:none;}
	.st1{fill:url(#SVGID_1_);}
	.st2{fill:url(#SVGID_00000181060872036046521850000016821624259192524218_);}
</style>
<polygon class="st0" points="101.7,0 88,23.7 115.4,23.7 "/>
<polygon class="st0" points="750,552.3 763.7,528.6 736.3,528.6 "/>
<polygon class="st0" points="838.2,398 851.9,374.3 824.5,374.3 "/>
<polygon class="st0" points="0,176.2 27.3,176.2 13.7,152.5 "/>
<linearGradient id="SVGID_1_" gradientUnits="userSpaceOnUse" x1="1.991" y1="535.49" x2="1.991" y2="20.7666" gradientTransform="matrix(-1 0 0 -1 433.7346 554)">
	<stop  offset="0" style="stop-color:#3D3D3D"/>
	<stop  offset="0.1263" style="stop-color:#313131"/>
	<stop  offset="0.4667" style="stop-color:#161616"/>
	<stop  offset="0.769" style="stop-color:#050505"/>
	<stop  offset="1" style="stop-color:#000000"/>
</linearGradient>
<path class="st1" d="M563.8,41.4h-408c-2.6,0-4.9,1.4-6.2,3.6L66.8,189.3c-1.4,2.5-1.2,5.5,0.4,7.8l226.7,309.8
	c1.4,1.8,3.5,2.9,5.8,2.9h408c2.6,0,4.9-1.4,6.2-3.6L796.7,362c1.4-2.5,1.2-5.5-0.4-7.8L569.6,44.3
	C568.2,42.5,566.1,41.4,563.8,41.4z"/>
<linearGradient id="SVGID_00000038405188445750482750000001553161575368576938_" gradientUnits="userSpaceOnUse" x1="431.7437" y1="533.5996" x2="431.7437" y2="23.165" gradientTransform="matrix(1 0 0 -1 0 554)">
	<stop  offset="0" style="stop-color:#3D3D3D"/>
	<stop  offset="0.1263" style="stop-color:#313131"/>
	<stop  offset="0.4667" style="stop-color:#161616"/>
	<stop  offset="0.769" style="stop-color:#050505"/>
	<stop  offset="1" style="stop-color:#000000"/>
</linearGradient>
<path style="fill:url(#SVGID_00000038405188445750482750000001553161575368576938_);" d="M563.8,41.4c2.3,0,4.4,1.1,5.8,2.9
	l226.7,309.8c1.7,2.3,1.8,5.3,0.4,7.8l-82.7,144.2c-1.3,2.2-3.7,3.6-6.2,3.6h-408c-2.3,0-4.4-1.1-5.8-2.9L67.3,197.1
	c-1.7-2.3-1.8-5.3-0.4-7.8L149.6,45c1.3-2.2,3.7-3.6,6.2-3.6L563.8,41.4 M563.8,20.4h-408c-10.1,0-19.4,5.4-24.4,14.2L48.6,178.8
	c-5.5,9.6-4.9,21.7,1.7,30.7L277,519.3c5.3,7.2,13.8,11.5,22.7,11.5h408c10.1,0,19.4-5.4,24.4-14.2l82.7-144.2
	c5.5-9.6,4.9-21.7-1.7-30.7L586.5,31.9C581.2,24.7,572.7,20.4,563.8,20.4L563.8,20.4L563.8,20.4z"/>
</svg>
