<?xml version="1.0" encoding="UTF-8"?><svg id="Layer_1" xmlns="http://www.w3.org/2000/svg" width="553.1486" height="374.562" viewBox="0 0 553.1486 374.562"><defs><style>.cls-1{fill:#c3ceff;}.cls-1,.cls-2{stroke:#839afc;}.cls-1,.cls-2,.cls-3{stroke-miterlimit:10;stroke-width:7px;}.cls-4{stroke-width:0px;}.cls-4,.cls-2{fill:#839afc;}.cls-3{fill:none;stroke:#c3ceff;}</style></defs><path class="cls-4" d="m21.5682,116.8619L68.3049,2.1597s30.045,10.924,40.4773,7.2827c0,0-27.5412,22.3032-38.3908,50.0684-10.8496,27.7652.4173,74.6474,50.075,41.4202l-24.6202,49.1581s-19.1954-42.3306-74.2779-33.2272Z"/><path class="cls-4" d="m103.3574,152.9184l42.981-81.4749,16.2744,2.731s-37.9735,37.7789-6.6767,89.2128c0,0-36.7217,6.8275-52.5787-10.4688Z"/><path class="cls-4" d="m167.3366,60.4201c5.5761-3.6231,10.9507-12.5656,14.4716-31.3072,0,0-14.6772,4.3897-26.7362,13.947-10.4331,8.2687,1.1017,24.6134,12.2646,17.3602Z"/><path class="cls-4" d="m213.4618,135.622c16.6917-63.2682-40.4773-57.3511-40.4773-57.3511-36.3043,48.2477-3.7556,80.528-3.7556,80.528l29.6277-19.0804-23.7856,58.2614c30.8796,5.0068,47.1539-15.0205,47.1539-15.0205-19.1954-14.5654-8.7631-47.3374-8.7631-47.3374Zm-28.1543-11.1815c-4.3687,3.7179-10.8215.5293-11.1004-5.5071-.2514-5.4401.9385-11.9337,6.2347-17.2687,4.7679-4.8028,12.5587-1.7029,13.2152,5.3399.4722,5.0651-1.1353,11.2963-8.3496,17.4359Z"/><path class="cls-4" d="m266.1011,139.1468l-13.8796,37.6437c-.1069.29.2028.5575.4741.4095l36.5142-19.9142c.1481-.0808.2141-.256.1524-.413-1.4665-3.732-17.4514-44.9521-14.5641-61.2788.034-.1922-.1001-.3686-.2944-.3873l-13.5968-1.3086c-.1387-.0134-.2712.0607-.3325.1859l-13.087,26.7196c-.1871.382-.7635.133-.6136-.2651l16.4232-43.6165c.1068-.2836-.1874-.5525-.4593-.4189-4.3892,2.1561-26.737,12.6885-39.0535,9.9207-.3195-.0718-.5377.3072-.3165.5485l7.6533,8.348c.0836.0912.1114.2176.07.3343-1.4163,3.9941-24.8492,71.1497-1.8707,78.3124.0392.0122.0759.018.1169.0162,1.2735-.0554,23.295-1.4917,36.6638-34.8365Z"/><path class="cls-4" d="m339.5575,79.4867c-7.711-15.2982-17.5489-14.0592-23.253-11.5314-4.0649,1.8013-8.2436,3.2589-12.4821,4.4956-46.416,13.5442-6.379,80.2867-6.379,80.2867,15.6742.9375,42.9839-27.4526,42.9839-27.4526,5.0203,14.1222-10.8333,32.105-10.8333,32.105,14.004,12.2186,51.725-7.3834,51.725-7.3834-28.0989-13.2937-35.3242-44.2626-37.0506-55.478-.8099-5.2618-2.3542-10.3664-4.7108-15.0419Zm-33.4796,41.2909s-13.7397-28.1244,15.3251-30.3979c0,0,11.3617,18.6853-15.3251,30.3979Z"/><path class="cls-4" d="m420.7518,0c-18.2315,19.0217-53.6377,13.2576-53.6377,13.2576,36.7273,32.5675,17.7031,54.4713,17.7031,54.4713-13.2206-3.77-21.524-3.3478-26.7309-1.4664-5.5364,2.0004-8.9174,8.0533-8.1415,14.3583,6.2507,50.7931,39.8926,55.1892,39.8926,55.1892,19.2707.2215,25.4853-25.0393,27.4436-43.8269,1.0134-9.7229.2429-19.5365-1.9136-29.0352-6.7679-29.8097,5.3844-62.948,5.3844-62.948Zm-32.2355,107.5016c-9.7763,11.2401-18.559-16.4279-18.559-16.4279,0,0,28.3354,5.1878,18.559,16.4279Z"/><path class="cls-4" d="m424.1235,81.1566c-.4524,15.5207-3.2805,26.6583-5.1156,32.3588-1.6585,5.152-2.3993,10.6196-2.0974,16.0701,1.1752,21.2134,14.889,23.591,14.889,23.591,14.9995,3.2368,26.0771-13.3916,31.7511-24.708,2.5996-5.1846,4.164-10.9058,4.612-16.7949,1.2027-15.8099,5.1606-29.4044,8.4355-38.3548,4.0135-10.9688,3.6639-23.3497-1.189-33.9072-12.1599-26.454-33.5558,1.5898-44.4946,19.1921-4.1512,6.68-6.5559,14.4871-6.791,22.553Zm16.223,36.9627c-15.9719-9.3968,11.9575-47.2704,11.9575-47.2704,0,0,4.0144,56.6673-11.9575,47.2704Z"/><path class="cls-4" d="m547.2983,33s14.0039,26.5151-1.3211,63.694c0,0-39.126-19.7663-39.7518,20.019-.1369,8.7041,1.6914,17.294,5.0007,25.2157,4.77,11.4181,10.7916,36.8907-17.5655,57.6555-37.7842,27.668-113.3979-17.4963-113.3979-17.4963,0,0,5.0816-20.751,24.8985-33.4321,0,0,60.7558,33.9242,73.7028,16.6317,8.0285-10.7231,4.1696-21.6679.0789-28.4361-4.5271-7.4902-3.8986-16.5068-2.8469-25.3493.5081-4.2725,1.6359-9.9045,2.5968-16.6409,2.8765-20.1661,19.8019-35.4545,40.1649-35.9988.1566-.0042.3134-.0078.4704-.0107,5.2732-.0998,10.3992-1.9933,14.5294-5.5707,4.8597-4.2092,10.5016-10.808,13.441-20.281Z"/><path class="cls-1" d="m470.72,311.0057h0c-10.8969,0-20.83-5.9168-25.5545-15.222l-4.9824-9.813c-4.2865-8.4425-15.8828-15.35-25.7695-15.35h0c-10.1166,0-18.813,6.7967-20.7385,16.2083l-6.3597,31.0857c-1.8895,9.2356-11.5578,16.7919-21.4853,16.7919h0c-7.6682,0-14.5187-4.5419-17.1468-11.3684l-14.0504-36.4962c-4.7015-12.2122-16.4054-20.9788-30.0876-21.916-14.8995-1.0206-28.6604,7.1076-34.3436,20.0045l-15.0289,34.1055c-4.8416,10.9871-16.1756,18.1413-28.7401,18.1413h0c-15.1048,0-27.5742-11.1904-28.3955-25.483l-1.438-25.0245c-.8625-15.0098-14.5468-27.2905-30.4096-27.2905h0c-8.748,0-16.5533,5.2072-19.5033,13.0115l-12.6463,33.4554c-2.0641,5.4606-7.5339,9.2676-13.6519,9.0896-8.5647-.2491-14.8329-7.6773-13.2538-15.6196l3.2689-16.4417c2.8105-14.1364-4.8928-28.2712-18.6837-34.2828h0c-20.0289-8.7308-43.2956,3.1972-46.5432,23.861l-3.5533,22.6088c-1.0217,6.5006-6.9118,11.3126-13.8474,11.3126h0c-7.0929-.1159-12.9239-5.3347-13.4508-12.0386l.9981,24.7747c1.145,28.4196,25.7463,50.9223,55.7583,51.0016l359.1327.9499c25.0201.0662,47.0457-15.6158,53.9431-38.4069l12.0384-39.7781c-3.5212,10.5874-13.7638,17.8764-25.4751,18.1289Z"/><path class="cls-2" d="m509.8867,211.7725c-21.2461,15.5517-58.0341,32.9774-97.7321,8.9287-29.2079-17.6939-51.5476-29.0583-66.9893-36.1246-18.5392-8.4837-39.6696-10.536-59.5983-5.6394-11.1311,2.735-21.4706,6.2302-29.6923,9.3511-8.8723,3.3678-17.1709,8.0542-24.19,14.2016-16.6945,14.6212-46.7536,14.7442-64.9173,13.2057-6.1504-.521-10.8498-5.432-10.8498-11.2836v-3.2456c0-8.5703-8.3411-14.9966-17.1767-13.1676-19.9558,4.1309-46.9184,5.1598-59.1244-14.6462-11.4443-18.5702-34.207-28.7249-52.1869-34.0839-12.4182-3.7013-24.8435,5.7116-23.8767,18.0137l10.7888,137.2748c.5237,6.6637,6.3819,11.817,13.4333,11.817h0c6.9355,0,12.8257-4.8119,13.8474-11.3126l3.5533-22.6088c3.2477-20.6638,26.5144-32.5918,46.5432-23.861h0c13.7909,6.0116,21.4942,20.1465,18.6837,34.2829l-3.2034,16.1123c-1.4551,7.3187,3.5735,14.5752,11.3293,15.7784,6.722,1.0429,13.1316-2.6246,15.3759-8.5618l12.7814-33.8127c2.9501-7.8043,10.7553-13.0115,19.5033-13.0115h0c15.8627,0,29.547,12.2807,30.4096,27.2905l1.438,25.0245c.8213,14.2926,13.2907,25.483,28.3955,25.483h0c12.5645,0,23.8986-7.1543,28.7401-18.1413l14.8051-33.5976c5.0704-11.5064,16.4314-19.6231,29.5562-20.5138,15.4826-1.0508,29.6492,7.7618,34.8991,21.3987l14.2501,37.0149c2.6281,6.8265,9.4786,11.3684,17.1468,11.3684h0c9.9274,0,19.5958-7.5564,21.4853-16.7919l6.3597-31.0857c1.9255-9.4115,10.6219-16.2083,20.7385-16.2083h0c9.8867,0,21.4829,6.9075,25.7695,15.35l4.9824,9.813c4.7245,9.3052,14.6576,15.222,25.5545,15.222h0c11.5745,0,21.8117-7.114,25.2909-17.5751l24.7701-74.4775c2.0498-6.1632-5.4975-11.1309-10.8942-7.1806Z"/><path class="cls-3" d="m32.0814,201.1776s21.9979-20.6725,53.5602,8.8201c31.5623,29.4926,47.3434,15.6491,47.3434,15.6491"/><path class="cls-3" d="m249.8717,249.9826s20.2097,1.6362,35.9867-8.7494c15.8337-10.423,44.6666-1.6327,44.6666-1.6327"/><path class="cls-3" d="m263.4724,214.8111s41.7098-26.8071,78.721-8.3623"/><path class="cls-3" d="m380.2627,228.8925s28.9111,27.4506,62.015,22.6355"/><path class="cls-3" d="m161.3369,242.0886s15.6497-4.4186,45.2352,7.988"/></svg>